<?xml version="1.0" encoding="utf-8" standalone="no"?>
<!DOCTYPE svg PUBLIC "-//W3C//DTD SVG 1.1//EN"
  "http://www.w3.org/Graphics/SVG/1.1/DTD/svg11.dtd">
<svg xmlns:xlink="http://www.w3.org/1999/xlink" width="576pt" height="288pt" viewBox="0 0 576 288" xmlns="http://www.w3.org/2000/svg" version="1.1">
 <metadata>
  <rdf:RDF xmlns:dc="http://purl.org/dc/elements/1.1/" xmlns:cc="http://creativecommons.org/ns#" xmlns:rdf="http://www.w3.org/1999/02/22-rdf-syntax-ns#">
   <cc:Work>
    <dc:type rdf:resource="http://purl.org/dc/dcmitype/StillImage"/>
    <dc:date>2024-01-26T15:15:32.829768</dc:date>
    <dc:format>image/svg+xml</dc:format>
    <dc:creator>
     <cc:Agent>
      <dc:title>Matplotlib v3.8.2, https://matplotlib.org/</dc:title>
     </cc:Agent>
    </dc:creator>
   </cc:Work>
  </rdf:RDF>
 </metadata>
 <defs>
  <style type="text/css">*{stroke-linejoin: round; stroke-linecap: butt}</style>
 </defs>
 <g id="figure_1">
  <g id="patch_1">
   <path d="M 0 288 
L 576 288 
L 576 0 
L 0 0 
z
" style="fill: #ffffff"/>
  </g>
  <g id="axes_1">
   <g id="patch_2">
    <path d="M 56.55 235.365464 
L 565.2 235.365464 
L 565.2 10.8 
L 56.55 10.8 
z
" style="fill: #eeeeee"/>
   </g>
   <g id="matplotlib.axis_1">
    <g id="xtick_1">
     <g id="line2d_1">
      <path d="M 117.513849 235.365464 
L 117.513849 10.8 
" clip-path="url(#p58408cc69c)" style="fill: none; stroke-dasharray: 1.85,0.8; stroke-dashoffset: 0; stroke: #b2b2b2; stroke-width: 0.5"/>
     </g>
     <g id="line2d_2">
      <defs>
       <path id="m232a0c6e74" d="M 0 0 
L 0 -3.5 
" style="stroke: #000000; stroke-width: 0.8"/>
      </defs>
      <g>
       <use xlink:href="#m232a0c6e74" x="117.513849" y="235.365464" style="stroke: #000000; stroke-width: 0.8"/>
      </g>
     </g>
     <g id="text_1">
      <!-- 1 -->
      <g transform="translate(110.963919 248.627154) rotate(-30) scale(0.1 -0.1)">
       <defs>
        <path id="DejaVuSans-31" d="M 794 531 
L 1825 531 
L 1825 4091 
L 703 3866 
L 703 4441 
L 1819 4666 
L 2450 4666 
L 2450 531 
L 3481 531 
L 3481 0 
L 794 0 
L 794 531 
z
" transform="scale(0.015625)"/>
       </defs>
       <use xlink:href="#DejaVuSans-31"/>
      </g>
     </g>
    </g>
    <g id="xtick_2">
     <g id="line2d_3">
      <path d="M 193.200638 235.365464 
L 193.200638 10.8 
" clip-path="url(#p58408cc69c)" style="fill: none; stroke-dasharray: 1.85,0.8; stroke-dashoffset: 0; stroke: #b2b2b2; stroke-width: 0.5"/>
     </g>
     <g id="line2d_4">
      <g>
       <use xlink:href="#m232a0c6e74" x="193.200638" y="235.365464" style="stroke: #000000; stroke-width: 0.8"/>
      </g>
     </g>
     <g id="text_2">
      <!-- 4 -->
      <g transform="translate(186.650708 248.627154) rotate(-30) scale(0.1 -0.1)">
       <defs>
        <path id="DejaVuSans-34" d="M 2419 4116 
L 825 1625 
L 2419 1625 
L 2419 4116 
z
M 2253 4666 
L 3047 4666 
L 3047 1625 
L 3713 1625 
L 3713 1100 
L 3047 1100 
L 3047 0 
L 2419 0 
L 2419 1100 
L 313 1100 
L 313 1709 
L 2253 4666 
z
" transform="scale(0.015625)"/>
       </defs>
       <use xlink:href="#DejaVuSans-34"/>
      </g>
     </g>
    </g>
    <g id="xtick_3">
     <g id="line2d_5">
      <path d="M 231.044033 235.365464 
L 231.044033 10.8 
" clip-path="url(#p58408cc69c)" style="fill: none; stroke-dasharray: 1.85,0.8; stroke-dashoffset: 0; stroke: #b2b2b2; stroke-width: 0.5"/>
     </g>
     <g id="line2d_6">
      <g>
       <use xlink:href="#m232a0c6e74" x="231.044033" y="235.365464" style="stroke: #000000; stroke-width: 0.8"/>
      </g>
     </g>
     <g id="text_3">
      <!-- 8 -->
      <g transform="translate(224.494103 248.627154) rotate(-30) scale(0.1 -0.1)">
       <defs>
        <path id="DejaVuSans-38" d="M 2034 2216 
Q 1584 2216 1326 1975 
Q 1069 1734 1069 1313 
Q 1069 891 1326 650 
Q 1584 409 2034 409 
Q 2484 409 2743 651 
Q 3003 894 3003 1313 
Q 3003 1734 2745 1975 
Q 2488 2216 2034 2216 
z
M 1403 2484 
Q 997 2584 770 2862 
Q 544 3141 544 3541 
Q 544 4100 942 4425 
Q 1341 4750 2034 4750 
Q 2731 4750 3128 4425 
Q 3525 4100 3525 3541 
Q 3525 3141 3298 2862 
Q 3072 2584 2669 2484 
Q 3125 2378 3379 2068 
Q 3634 1759 3634 1313 
Q 3634 634 3220 271 
Q 2806 -91 2034 -91 
Q 1263 -91 848 271 
Q 434 634 434 1313 
Q 434 1759 690 2068 
Q 947 2378 1403 2484 
z
M 1172 3481 
Q 1172 3119 1398 2916 
Q 1625 2713 2034 2713 
Q 2441 2713 2670 2916 
Q 2900 3119 2900 3481 
Q 2900 3844 2670 4047 
Q 2441 4250 2034 4250 
Q 1625 4250 1398 4047 
Q 1172 3844 1172 3481 
z
" transform="scale(0.015625)"/>
       </defs>
       <use xlink:href="#DejaVuSans-38"/>
      </g>
     </g>
    </g>
    <g id="xtick_4">
     <g id="line2d_7">
      <path d="M 281.07028 235.365464 
L 281.07028 10.8 
" clip-path="url(#p58408cc69c)" style="fill: none; stroke-dasharray: 1.85,0.8; stroke-dashoffset: 0; stroke: #b2b2b2; stroke-width: 0.5"/>
     </g>
     <g id="line2d_8">
      <g>
       <use xlink:href="#m232a0c6e74" x="281.07028" y="235.365464" style="stroke: #000000; stroke-width: 0.8"/>
      </g>
     </g>
     <g id="text_4">
      <!-- 20 -->
      <g transform="translate(269.010263 251.808404) rotate(-30) scale(0.1 -0.1)">
       <defs>
        <path id="DejaVuSans-32" d="M 1228 531 
L 3431 531 
L 3431 0 
L 469 0 
L 469 531 
Q 828 903 1448 1529 
Q 2069 2156 2228 2338 
Q 2531 2678 2651 2914 
Q 2772 3150 2772 3378 
Q 2772 3750 2511 3984 
Q 2250 4219 1831 4219 
Q 1534 4219 1204 4116 
Q 875 4013 500 3803 
L 500 4441 
Q 881 4594 1212 4672 
Q 1544 4750 1819 4750 
Q 2544 4750 2975 4387 
Q 3406 4025 3406 3419 
Q 3406 3131 3298 2873 
Q 3191 2616 2906 2266 
Q 2828 2175 2409 1742 
Q 1991 1309 1228 531 
z
" transform="scale(0.015625)"/>
        <path id="DejaVuSans-30" d="M 2034 4250 
Q 1547 4250 1301 3770 
Q 1056 3291 1056 2328 
Q 1056 1369 1301 889 
Q 1547 409 2034 409 
Q 2525 409 2770 889 
Q 3016 1369 3016 2328 
Q 3016 3291 2770 3770 
Q 2525 4250 2034 4250 
z
M 2034 4750 
Q 2819 4750 3233 4129 
Q 3647 3509 3647 2328 
Q 3647 1150 3233 529 
Q 2819 -91 2034 -91 
Q 1250 -91 836 529 
Q 422 1150 422 2328 
Q 422 3509 836 4129 
Q 1250 4750 2034 4750 
z
" transform="scale(0.015625)"/>
       </defs>
       <use xlink:href="#DejaVuSans-32"/>
       <use xlink:href="#DejaVuSans-30" x="63.623047"/>
      </g>
     </g>
    </g>
    <g id="xtick_5">
     <g id="line2d_9">
      <path d="M 318.913674 235.365464 
L 318.913674 10.8 
" clip-path="url(#p58408cc69c)" style="fill: none; stroke-dasharray: 1.85,0.8; stroke-dashoffset: 0; stroke: #b2b2b2; stroke-width: 0.5"/>
     </g>
     <g id="line2d_10">
      <g>
       <use xlink:href="#m232a0c6e74" x="318.913674" y="235.365464" style="stroke: #000000; stroke-width: 0.8"/>
      </g>
     </g>
     <g id="text_5">
      <!-- 40 -->
      <g transform="translate(306.853657 251.808404) rotate(-30) scale(0.1 -0.1)">
       <use xlink:href="#DejaVuSans-34"/>
       <use xlink:href="#DejaVuSans-30" x="63.623047"/>
      </g>
     </g>
    </g>
    <g id="xtick_6">
     <g id="line2d_11">
      <path d="M 382.417612 235.365464 
L 382.417612 10.8 
" clip-path="url(#p58408cc69c)" style="fill: none; stroke-dasharray: 1.85,0.8; stroke-dashoffset: 0; stroke: #b2b2b2; stroke-width: 0.5"/>
     </g>
     <g id="line2d_12">
      <g>
       <use xlink:href="#m232a0c6e74" x="382.417612" y="235.365464" style="stroke: #000000; stroke-width: 0.8"/>
      </g>
     </g>
     <g id="text_6">
      <!-- 128 -->
      <g transform="translate(364.847508 254.989654) rotate(-30) scale(0.1 -0.1)">
       <use xlink:href="#DejaVuSans-31"/>
       <use xlink:href="#DejaVuSans-32" x="63.623047"/>
       <use xlink:href="#DejaVuSans-38" x="127.246094"/>
      </g>
     </g>
    </g>
    <g id="xtick_7">
     <g id="line2d_13">
      <path d="M 495.947796 235.365464 
L 495.947796 10.8 
" clip-path="url(#p58408cc69c)" style="fill: none; stroke-dasharray: 1.85,0.8; stroke-dashoffset: 0; stroke: #b2b2b2; stroke-width: 0.5"/>
     </g>
     <g id="line2d_14">
      <g>
       <use xlink:href="#m232a0c6e74" x="495.947796" y="235.365464" style="stroke: #000000; stroke-width: 0.8"/>
      </g>
     </g>
     <g id="text_7">
      <!-- 1024 -->
      <g transform="translate(472.867605 258.170904) rotate(-30) scale(0.1 -0.1)">
       <use xlink:href="#DejaVuSans-31"/>
       <use xlink:href="#DejaVuSans-30" x="63.623047"/>
       <use xlink:href="#DejaVuSans-32" x="127.246094"/>
       <use xlink:href="#DejaVuSans-34" x="190.869141"/>
      </g>
     </g>
    </g>
    <g id="text_8">
     <!-- Total data vol (MB) -->
     <g transform="translate(254.762812 273.090091) scale(0.12 -0.12)">
      <defs>
       <path id="DejaVuSans-54" d="M -19 4666 
L 3928 4666 
L 3928 4134 
L 2272 4134 
L 2272 0 
L 1638 0 
L 1638 4134 
L -19 4134 
L -19 4666 
z
" transform="scale(0.015625)"/>
       <path id="DejaVuSans-6f" d="M 1959 3097 
Q 1497 3097 1228 2736 
Q 959 2375 959 1747 
Q 959 1119 1226 758 
Q 1494 397 1959 397 
Q 2419 397 2687 759 
Q 2956 1122 2956 1747 
Q 2956 2369 2687 2733 
Q 2419 3097 1959 3097 
z
M 1959 3584 
Q 2709 3584 3137 3096 
Q 3566 2609 3566 1747 
Q 3566 888 3137 398 
Q 2709 -91 1959 -91 
Q 1206 -91 779 398 
Q 353 888 353 1747 
Q 353 2609 779 3096 
Q 1206 3584 1959 3584 
z
" transform="scale(0.015625)"/>
       <path id="DejaVuSans-74" d="M 1172 4494 
L 1172 3500 
L 2356 3500 
L 2356 3053 
L 1172 3053 
L 1172 1153 
Q 1172 725 1289 603 
Q 1406 481 1766 481 
L 2356 481 
L 2356 0 
L 1766 0 
Q 1100 0 847 248 
Q 594 497 594 1153 
L 594 3053 
L 172 3053 
L 172 3500 
L 594 3500 
L 594 4494 
L 1172 4494 
z
" transform="scale(0.015625)"/>
       <path id="DejaVuSans-61" d="M 2194 1759 
Q 1497 1759 1228 1600 
Q 959 1441 959 1056 
Q 959 750 1161 570 
Q 1363 391 1709 391 
Q 2188 391 2477 730 
Q 2766 1069 2766 1631 
L 2766 1759 
L 2194 1759 
z
M 3341 1997 
L 3341 0 
L 2766 0 
L 2766 531 
Q 2569 213 2275 61 
Q 1981 -91 1556 -91 
Q 1019 -91 701 211 
Q 384 513 384 1019 
Q 384 1609 779 1909 
Q 1175 2209 1959 2209 
L 2766 2209 
L 2766 2266 
Q 2766 2663 2505 2880 
Q 2244 3097 1772 3097 
Q 1472 3097 1187 3025 
Q 903 2953 641 2809 
L 641 3341 
Q 956 3463 1253 3523 
Q 1550 3584 1831 3584 
Q 2591 3584 2966 3190 
Q 3341 2797 3341 1997 
z
" transform="scale(0.015625)"/>
       <path id="DejaVuSans-6c" d="M 603 4863 
L 1178 4863 
L 1178 0 
L 603 0 
L 603 4863 
z
" transform="scale(0.015625)"/>
       <path id="DejaVuSans-20" transform="scale(0.015625)"/>
       <path id="DejaVuSans-64" d="M 2906 2969 
L 2906 4863 
L 3481 4863 
L 3481 0 
L 2906 0 
L 2906 525 
Q 2725 213 2448 61 
Q 2172 -91 1784 -91 
Q 1150 -91 751 415 
Q 353 922 353 1747 
Q 353 2572 751 3078 
Q 1150 3584 1784 3584 
Q 2172 3584 2448 3432 
Q 2725 3281 2906 2969 
z
M 947 1747 
Q 947 1113 1208 752 
Q 1469 391 1925 391 
Q 2381 391 2643 752 
Q 2906 1113 2906 1747 
Q 2906 2381 2643 2742 
Q 2381 3103 1925 3103 
Q 1469 3103 1208 2742 
Q 947 2381 947 1747 
z
" transform="scale(0.015625)"/>
       <path id="DejaVuSans-76" d="M 191 3500 
L 800 3500 
L 1894 563 
L 2988 3500 
L 3597 3500 
L 2284 0 
L 1503 0 
L 191 3500 
z
" transform="scale(0.015625)"/>
       <path id="DejaVuSans-28" d="M 1984 4856 
Q 1566 4138 1362 3434 
Q 1159 2731 1159 2009 
Q 1159 1288 1364 580 
Q 1569 -128 1984 -844 
L 1484 -844 
Q 1016 -109 783 600 
Q 550 1309 550 2009 
Q 550 2706 781 3412 
Q 1013 4119 1484 4856 
L 1984 4856 
z
" transform="scale(0.015625)"/>
       <path id="DejaVuSans-4d" d="M 628 4666 
L 1569 4666 
L 2759 1491 
L 3956 4666 
L 4897 4666 
L 4897 0 
L 4281 0 
L 4281 4097 
L 3078 897 
L 2444 897 
L 1241 4097 
L 1241 0 
L 628 0 
L 628 4666 
z
" transform="scale(0.015625)"/>
       <path id="DejaVuSans-42" d="M 1259 2228 
L 1259 519 
L 2272 519 
Q 2781 519 3026 730 
Q 3272 941 3272 1375 
Q 3272 1813 3026 2020 
Q 2781 2228 2272 2228 
L 1259 2228 
z
M 1259 4147 
L 1259 2741 
L 2194 2741 
Q 2656 2741 2882 2914 
Q 3109 3088 3109 3444 
Q 3109 3797 2882 3972 
Q 2656 4147 2194 4147 
L 1259 4147 
z
M 628 4666 
L 2241 4666 
Q 2963 4666 3353 4366 
Q 3744 4066 3744 3513 
Q 3744 3084 3544 2831 
Q 3344 2578 2956 2516 
Q 3422 2416 3680 2098 
Q 3938 1781 3938 1306 
Q 3938 681 3513 340 
Q 3088 0 2303 0 
L 628 0 
L 628 4666 
z
" transform="scale(0.015625)"/>
       <path id="DejaVuSans-29" d="M 513 4856 
L 1013 4856 
Q 1481 4119 1714 3412 
Q 1947 2706 1947 2009 
Q 1947 1309 1714 600 
Q 1481 -109 1013 -844 
L 513 -844 
Q 928 -128 1133 580 
Q 1338 1288 1338 2009 
Q 1338 2731 1133 3434 
Q 928 4138 513 4856 
z
" transform="scale(0.015625)"/>
      </defs>
      <use xlink:href="#DejaVuSans-54"/>
      <use xlink:href="#DejaVuSans-6f" x="44.083984"/>
      <use xlink:href="#DejaVuSans-74" x="105.265625"/>
      <use xlink:href="#DejaVuSans-61" x="144.474609"/>
      <use xlink:href="#DejaVuSans-6c" x="205.753906"/>
      <use xlink:href="#DejaVuSans-20" x="233.537109"/>
      <use xlink:href="#DejaVuSans-64" x="265.324219"/>
      <use xlink:href="#DejaVuSans-61" x="328.800781"/>
      <use xlink:href="#DejaVuSans-74" x="390.080078"/>
      <use xlink:href="#DejaVuSans-61" x="429.289062"/>
      <use xlink:href="#DejaVuSans-20" x="490.568359"/>
      <use xlink:href="#DejaVuSans-76" x="522.355469"/>
      <use xlink:href="#DejaVuSans-6f" x="581.535156"/>
      <use xlink:href="#DejaVuSans-6c" x="642.716797"/>
      <use xlink:href="#DejaVuSans-20" x="670.5"/>
      <use xlink:href="#DejaVuSans-28" x="702.287109"/>
      <use xlink:href="#DejaVuSans-4d" x="741.300781"/>
      <use xlink:href="#DejaVuSans-42" x="827.580078"/>
      <use xlink:href="#DejaVuSans-29" x="896.183594"/>
     </g>
    </g>
   </g>
   <g id="matplotlib.axis_2">
    <g id="ytick_1">
     <g id="line2d_15">
      <path d="M 56.55 235.365464 
L 565.2 235.365464 
" clip-path="url(#p58408cc69c)" style="fill: none; stroke-dasharray: 1.85,0.8; stroke-dashoffset: 0; stroke: #b2b2b2; stroke-width: 0.5"/>
     </g>
     <g id="line2d_16">
      <defs>
       <path id="ma1d6ae6ab6" d="M 0 0 
L 3.5 0 
" style="stroke: #000000; stroke-width: 0.8"/>
      </defs>
      <g>
       <use xlink:href="#ma1d6ae6ab6" x="56.55" y="235.365464" style="stroke: #000000; stroke-width: 0.8"/>
      </g>
     </g>
     <g id="text_9">
      <!-- 0 -->
      <g transform="translate(46.6875 239.164683) scale(0.1 -0.1)">
       <use xlink:href="#DejaVuSans-30"/>
      </g>
     </g>
    </g>
    <g id="ytick_2">
     <g id="line2d_17">
      <path d="M 56.55 186.022124 
L 565.2 186.022124 
" clip-path="url(#p58408cc69c)" style="fill: none; stroke-dasharray: 1.85,0.8; stroke-dashoffset: 0; stroke: #b2b2b2; stroke-width: 0.5"/>
     </g>
     <g id="line2d_18">
      <g>
       <use xlink:href="#ma1d6ae6ab6" x="56.55" y="186.022124" style="stroke: #000000; stroke-width: 0.8"/>
      </g>
     </g>
     <g id="text_10">
      <!-- 1000 -->
      <g transform="translate(27.6 189.821343) scale(0.1 -0.1)">
       <use xlink:href="#DejaVuSans-31"/>
       <use xlink:href="#DejaVuSans-30" x="63.623047"/>
       <use xlink:href="#DejaVuSans-30" x="127.246094"/>
       <use xlink:href="#DejaVuSans-30" x="190.869141"/>
      </g>
     </g>
    </g>
    <g id="ytick_3">
     <g id="line2d_19">
      <path d="M 56.55 136.678784 
L 565.2 136.678784 
" clip-path="url(#p58408cc69c)" style="fill: none; stroke-dasharray: 1.85,0.8; stroke-dashoffset: 0; stroke: #b2b2b2; stroke-width: 0.5"/>
     </g>
     <g id="line2d_20">
      <g>
       <use xlink:href="#ma1d6ae6ab6" x="56.55" y="136.678784" style="stroke: #000000; stroke-width: 0.8"/>
      </g>
     </g>
     <g id="text_11">
      <!-- 2000 -->
      <g transform="translate(27.6 140.478002) scale(0.1 -0.1)">
       <use xlink:href="#DejaVuSans-32"/>
       <use xlink:href="#DejaVuSans-30" x="63.623047"/>
       <use xlink:href="#DejaVuSans-30" x="127.246094"/>
       <use xlink:href="#DejaVuSans-30" x="190.869141"/>
      </g>
     </g>
    </g>
    <g id="ytick_4">
     <g id="line2d_21">
      <path d="M 56.55 87.335443 
L 565.2 87.335443 
" clip-path="url(#p58408cc69c)" style="fill: none; stroke-dasharray: 1.85,0.8; stroke-dashoffset: 0; stroke: #b2b2b2; stroke-width: 0.5"/>
     </g>
     <g id="line2d_22">
      <g>
       <use xlink:href="#ma1d6ae6ab6" x="56.55" y="87.335443" style="stroke: #000000; stroke-width: 0.8"/>
      </g>
     </g>
     <g id="text_12">
      <!-- 3000 -->
      <g transform="translate(27.6 91.134662) scale(0.1 -0.1)">
       <defs>
        <path id="DejaVuSans-33" d="M 2597 2516 
Q 3050 2419 3304 2112 
Q 3559 1806 3559 1356 
Q 3559 666 3084 287 
Q 2609 -91 1734 -91 
Q 1441 -91 1130 -33 
Q 819 25 488 141 
L 488 750 
Q 750 597 1062 519 
Q 1375 441 1716 441 
Q 2309 441 2620 675 
Q 2931 909 2931 1356 
Q 2931 1769 2642 2001 
Q 2353 2234 1838 2234 
L 1294 2234 
L 1294 2753 
L 1863 2753 
Q 2328 2753 2575 2939 
Q 2822 3125 2822 3475 
Q 2822 3834 2567 4026 
Q 2313 4219 1838 4219 
Q 1578 4219 1281 4162 
Q 984 4106 628 3988 
L 628 4550 
Q 988 4650 1302 4700 
Q 1616 4750 1894 4750 
Q 2613 4750 3031 4423 
Q 3450 4097 3450 3541 
Q 3450 3153 3228 2886 
Q 3006 2619 2597 2516 
z
" transform="scale(0.015625)"/>
       </defs>
       <use xlink:href="#DejaVuSans-33"/>
       <use xlink:href="#DejaVuSans-30" x="63.623047"/>
       <use xlink:href="#DejaVuSans-30" x="127.246094"/>
       <use xlink:href="#DejaVuSans-30" x="190.869141"/>
      </g>
     </g>
    </g>
    <g id="ytick_5">
     <g id="line2d_23">
      <path d="M 56.55 37.992103 
L 565.2 37.992103 
" clip-path="url(#p58408cc69c)" style="fill: none; stroke-dasharray: 1.85,0.8; stroke-dashoffset: 0; stroke: #b2b2b2; stroke-width: 0.5"/>
     </g>
     <g id="line2d_24">
      <g>
       <use xlink:href="#ma1d6ae6ab6" x="56.55" y="37.992103" style="stroke: #000000; stroke-width: 0.8"/>
      </g>
     </g>
     <g id="text_13">
      <!-- 4000 -->
      <g transform="translate(27.6 41.791322) scale(0.1 -0.1)">
       <use xlink:href="#DejaVuSans-34"/>
       <use xlink:href="#DejaVuSans-30" x="63.623047"/>
       <use xlink:href="#DejaVuSans-30" x="127.246094"/>
       <use xlink:href="#DejaVuSans-30" x="190.869141"/>
      </g>
     </g>
    </g>
    <g id="text_14">
     <!-- Bandwidth (GB/s) -->
     <g transform="translate(21.104375 175.526482) rotate(-90) scale(0.12 -0.12)">
      <defs>
       <path id="DejaVuSans-6e" d="M 3513 2113 
L 3513 0 
L 2938 0 
L 2938 2094 
Q 2938 2591 2744 2837 
Q 2550 3084 2163 3084 
Q 1697 3084 1428 2787 
Q 1159 2491 1159 1978 
L 1159 0 
L 581 0 
L 581 3500 
L 1159 3500 
L 1159 2956 
Q 1366 3272 1645 3428 
Q 1925 3584 2291 3584 
Q 2894 3584 3203 3211 
Q 3513 2838 3513 2113 
z
" transform="scale(0.015625)"/>
       <path id="DejaVuSans-77" d="M 269 3500 
L 844 3500 
L 1563 769 
L 2278 3500 
L 2956 3500 
L 3675 769 
L 4391 3500 
L 4966 3500 
L 4050 0 
L 3372 0 
L 2619 2869 
L 1863 0 
L 1184 0 
L 269 3500 
z
" transform="scale(0.015625)"/>
       <path id="DejaVuSans-69" d="M 603 3500 
L 1178 3500 
L 1178 0 
L 603 0 
L 603 3500 
z
M 603 4863 
L 1178 4863 
L 1178 4134 
L 603 4134 
L 603 4863 
z
" transform="scale(0.015625)"/>
       <path id="DejaVuSans-68" d="M 3513 2113 
L 3513 0 
L 2938 0 
L 2938 2094 
Q 2938 2591 2744 2837 
Q 2550 3084 2163 3084 
Q 1697 3084 1428 2787 
Q 1159 2491 1159 1978 
L 1159 0 
L 581 0 
L 581 4863 
L 1159 4863 
L 1159 2956 
Q 1366 3272 1645 3428 
Q 1925 3584 2291 3584 
Q 2894 3584 3203 3211 
Q 3513 2838 3513 2113 
z
" transform="scale(0.015625)"/>
       <path id="DejaVuSans-47" d="M 3809 666 
L 3809 1919 
L 2778 1919 
L 2778 2438 
L 4434 2438 
L 4434 434 
Q 4069 175 3628 42 
Q 3188 -91 2688 -91 
Q 1594 -91 976 548 
Q 359 1188 359 2328 
Q 359 3472 976 4111 
Q 1594 4750 2688 4750 
Q 3144 4750 3555 4637 
Q 3966 4525 4313 4306 
L 4313 3634 
Q 3963 3931 3569 4081 
Q 3175 4231 2741 4231 
Q 1884 4231 1454 3753 
Q 1025 3275 1025 2328 
Q 1025 1384 1454 906 
Q 1884 428 2741 428 
Q 3075 428 3337 486 
Q 3600 544 3809 666 
z
" transform="scale(0.015625)"/>
       <path id="DejaVuSans-2f" d="M 1625 4666 
L 2156 4666 
L 531 -594 
L 0 -594 
L 1625 4666 
z
" transform="scale(0.015625)"/>
       <path id="DejaVuSans-73" d="M 2834 3397 
L 2834 2853 
Q 2591 2978 2328 3040 
Q 2066 3103 1784 3103 
Q 1356 3103 1142 2972 
Q 928 2841 928 2578 
Q 928 2378 1081 2264 
Q 1234 2150 1697 2047 
L 1894 2003 
Q 2506 1872 2764 1633 
Q 3022 1394 3022 966 
Q 3022 478 2636 193 
Q 2250 -91 1575 -91 
Q 1294 -91 989 -36 
Q 684 19 347 128 
L 347 722 
Q 666 556 975 473 
Q 1284 391 1588 391 
Q 1994 391 2212 530 
Q 2431 669 2431 922 
Q 2431 1156 2273 1281 
Q 2116 1406 1581 1522 
L 1381 1569 
Q 847 1681 609 1914 
Q 372 2147 372 2553 
Q 372 3047 722 3315 
Q 1072 3584 1716 3584 
Q 2034 3584 2315 3537 
Q 2597 3491 2834 3397 
z
" transform="scale(0.015625)"/>
      </defs>
      <use xlink:href="#DejaVuSans-42"/>
      <use xlink:href="#DejaVuSans-61" x="68.603516"/>
      <use xlink:href="#DejaVuSans-6e" x="129.882812"/>
      <use xlink:href="#DejaVuSans-64" x="193.261719"/>
      <use xlink:href="#DejaVuSans-77" x="256.738281"/>
      <use xlink:href="#DejaVuSans-69" x="338.525391"/>
      <use xlink:href="#DejaVuSans-64" x="366.308594"/>
      <use xlink:href="#DejaVuSans-74" x="429.785156"/>
      <use xlink:href="#DejaVuSans-68" x="468.994141"/>
      <use xlink:href="#DejaVuSans-20" x="532.373047"/>
      <use xlink:href="#DejaVuSans-28" x="564.160156"/>
      <use xlink:href="#DejaVuSans-47" x="603.173828"/>
      <use xlink:href="#DejaVuSans-42" x="680.664062"/>
      <use xlink:href="#DejaVuSans-2f" x="749.267578"/>
      <use xlink:href="#DejaVuSans-73" x="782.958984"/>
      <use xlink:href="#DejaVuSans-29" x="835.058594"/>
     </g>
    </g>
   </g>
   <g id="line2d_25">
    <path d="M 79.670455 52.874055 
L 101.807421 52.459571 
L 117.513849 52.563192 
L 129.696701 52.09443 
L 139.650816 52.35595 
L 148.0669 48.556512 
L 155.357244 39.319439 
L 161.787783 39.378651 
L 167.540096 39.319439 
L 172.743696 39.704317 
L 177.494211 39.467469 
L 181.864261 38.870415 
L 185.910295 39.383585 
L 189.677063 39.467469 
L 193.200638 39.378651 
L 196.510529 39.319439 
L 199.631177 39.763529 
L 202.583057 39.265161 
L 205.38349 39.728989 
L 210.587091 39.497075 
L 215.337605 39.763529 
L 219.707655 39.970771 
L 223.753689 39.349045 
L 227.520457 39.590827 
L 232.724057 39.442797 
L 237.474572 40.034918 
L 241.844622 39.378651 
L 245.890656 39.645105 
L 250.857395 39.442797 
L 255.409737 39.497075 
L 260.613337 39.645105 
L 265.363852 39.704317 
L 270.567452 39.353979 
L 275.317967 39.793135 
L 280.383522 39.852347 
L 285.018733 39.551353 
L 289.874953 39.590827 
L 294.866938 39.526681 
L 299.925784 39.551353 
L 304.997455 39.590827 
L 310.040713 39.857281 
L 315.024903 39.497075 
L 319.92788 39.502009 
L 325.040054 39.704317 
L 329.99353 39.531615 
L 335.04498 39.645105 
L 340.133032 39.645105 
L 345.2103 39.590827 
L 350.241156 39.674711 
L 355.374806 161.804412 
L 360.546581 185.341186 
L 365.706752 187.763944 
L 370.818118 188.01066 
L 375.973742 188.079741 
L 381.122773 188.15869 
L 386.326373 188.045201 
L 391.529973 188.055069 
L 396.692539 188.064938 
L 401.858808 188.109347 
L 407.055618 188.351129 
L 412.234519 188.356064 
L 417.415656 188.489291 
L 422.609043 188.666927 
L 427.77084 188.819891 
L 432.953316 189.002462 
L 438.149232 189.214638 
L 443.349339 189.214638 
L 448.543412 189.431749 
L 453.72102 189.658728 
L 458.92462 189.959722 
L 464.10673 190.236045 
L 469.297301 190.596251 
L 474.493004 190.961392 
L 479.687628 191.356139 
L 484.889596 191.79036 
L 490.085777 191.918653 
L 495.277234 191.889047 
L 500.473473 191.898916 
L 505.677073 191.893981 
L 510.875603 191.86931 
L 516.075516 191.977865 
L 521.277439 191.864375 
L 526.477992 191.884113 
L 531.678128 191.898916 
L 536.881098 191.90385 
L 542.079545 191.889047 
" clip-path="url(#p58408cc69c)" style="fill: none; stroke: #348abd; stroke-opacity: 0.8; stroke-width: 3; stroke-linecap: square"/>
    <defs>
     <path id="mb05d1c357a" d="M -1.5 1.5 
L 1.5 -1.5 
M -1.5 -1.5 
L 1.5 1.5 
" style="stroke: #348abd; stroke-opacity: 0.8"/>
    </defs>
    <g clip-path="url(#p58408cc69c)">
     <use xlink:href="#mb05d1c357a" x="79.670455" y="52.874055" style="fill: #348abd; fill-opacity: 0.8; stroke: #348abd; stroke-opacity: 0.8"/>
     <use xlink:href="#mb05d1c357a" x="101.807421" y="52.459571" style="fill: #348abd; fill-opacity: 0.8; stroke: #348abd; stroke-opacity: 0.8"/>
     <use xlink:href="#mb05d1c357a" x="117.513849" y="52.563192" style="fill: #348abd; fill-opacity: 0.8; stroke: #348abd; stroke-opacity: 0.8"/>
     <use xlink:href="#mb05d1c357a" x="129.696701" y="52.09443" style="fill: #348abd; fill-opacity: 0.8; stroke: #348abd; stroke-opacity: 0.8"/>
     <use xlink:href="#mb05d1c357a" x="139.650816" y="52.35595" style="fill: #348abd; fill-opacity: 0.8; stroke: #348abd; stroke-opacity: 0.8"/>
     <use xlink:href="#mb05d1c357a" x="148.0669" y="48.556512" style="fill: #348abd; fill-opacity: 0.8; stroke: #348abd; stroke-opacity: 0.8"/>
     <use xlink:href="#mb05d1c357a" x="155.357244" y="39.319439" style="fill: #348abd; fill-opacity: 0.8; stroke: #348abd; stroke-opacity: 0.8"/>
     <use xlink:href="#mb05d1c357a" x="161.787783" y="39.378651" style="fill: #348abd; fill-opacity: 0.8; stroke: #348abd; stroke-opacity: 0.8"/>
     <use xlink:href="#mb05d1c357a" x="167.540096" y="39.319439" style="fill: #348abd; fill-opacity: 0.8; stroke: #348abd; stroke-opacity: 0.8"/>
     <use xlink:href="#mb05d1c357a" x="172.743696" y="39.704317" style="fill: #348abd; fill-opacity: 0.8; stroke: #348abd; stroke-opacity: 0.8"/>
     <use xlink:href="#mb05d1c357a" x="177.494211" y="39.467469" style="fill: #348abd; fill-opacity: 0.8; stroke: #348abd; stroke-opacity: 0.8"/>
     <use xlink:href="#mb05d1c357a" x="181.864261" y="38.870415" style="fill: #348abd; fill-opacity: 0.8; stroke: #348abd; stroke-opacity: 0.8"/>
     <use xlink:href="#mb05d1c357a" x="185.910295" y="39.383585" style="fill: #348abd; fill-opacity: 0.8; stroke: #348abd; stroke-opacity: 0.8"/>
     <use xlink:href="#mb05d1c357a" x="189.677063" y="39.467469" style="fill: #348abd; fill-opacity: 0.8; stroke: #348abd; stroke-opacity: 0.8"/>
     <use xlink:href="#mb05d1c357a" x="193.200638" y="39.378651" style="fill: #348abd; fill-opacity: 0.8; stroke: #348abd; stroke-opacity: 0.8"/>
     <use xlink:href="#mb05d1c357a" x="196.510529" y="39.319439" style="fill: #348abd; fill-opacity: 0.8; stroke: #348abd; stroke-opacity: 0.8"/>
     <use xlink:href="#mb05d1c357a" x="199.631177" y="39.763529" style="fill: #348abd; fill-opacity: 0.8; stroke: #348abd; stroke-opacity: 0.8"/>
     <use xlink:href="#mb05d1c357a" x="202.583057" y="39.265161" style="fill: #348abd; fill-opacity: 0.8; stroke: #348abd; stroke-opacity: 0.8"/>
     <use xlink:href="#mb05d1c357a" x="205.38349" y="39.728989" style="fill: #348abd; fill-opacity: 0.8; stroke: #348abd; stroke-opacity: 0.8"/>
     <use xlink:href="#mb05d1c357a" x="210.587091" y="39.497075" style="fill: #348abd; fill-opacity: 0.8; stroke: #348abd; stroke-opacity: 0.8"/>
     <use xlink:href="#mb05d1c357a" x="215.337605" y="39.763529" style="fill: #348abd; fill-opacity: 0.8; stroke: #348abd; stroke-opacity: 0.8"/>
     <use xlink:href="#mb05d1c357a" x="219.707655" y="39.970771" style="fill: #348abd; fill-opacity: 0.8; stroke: #348abd; stroke-opacity: 0.8"/>
     <use xlink:href="#mb05d1c357a" x="223.753689" y="39.349045" style="fill: #348abd; fill-opacity: 0.8; stroke: #348abd; stroke-opacity: 0.8"/>
     <use xlink:href="#mb05d1c357a" x="227.520457" y="39.590827" style="fill: #348abd; fill-opacity: 0.8; stroke: #348abd; stroke-opacity: 0.8"/>
     <use xlink:href="#mb05d1c357a" x="232.724057" y="39.442797" style="fill: #348abd; fill-opacity: 0.8; stroke: #348abd; stroke-opacity: 0.8"/>
     <use xlink:href="#mb05d1c357a" x="237.474572" y="40.034918" style="fill: #348abd; fill-opacity: 0.8; stroke: #348abd; stroke-opacity: 0.8"/>
     <use xlink:href="#mb05d1c357a" x="241.844622" y="39.378651" style="fill: #348abd; fill-opacity: 0.8; stroke: #348abd; stroke-opacity: 0.8"/>
     <use xlink:href="#mb05d1c357a" x="245.890656" y="39.645105" style="fill: #348abd; fill-opacity: 0.8; stroke: #348abd; stroke-opacity: 0.8"/>
     <use xlink:href="#mb05d1c357a" x="250.857395" y="39.442797" style="fill: #348abd; fill-opacity: 0.8; stroke: #348abd; stroke-opacity: 0.8"/>
     <use xlink:href="#mb05d1c357a" x="255.409737" y="39.497075" style="fill: #348abd; fill-opacity: 0.8; stroke: #348abd; stroke-opacity: 0.8"/>
     <use xlink:href="#mb05d1c357a" x="260.613337" y="39.645105" style="fill: #348abd; fill-opacity: 0.8; stroke: #348abd; stroke-opacity: 0.8"/>
     <use xlink:href="#mb05d1c357a" x="265.363852" y="39.704317" style="fill: #348abd; fill-opacity: 0.8; stroke: #348abd; stroke-opacity: 0.8"/>
     <use xlink:href="#mb05d1c357a" x="270.567452" y="39.353979" style="fill: #348abd; fill-opacity: 0.8; stroke: #348abd; stroke-opacity: 0.8"/>
     <use xlink:href="#mb05d1c357a" x="275.317967" y="39.793135" style="fill: #348abd; fill-opacity: 0.8; stroke: #348abd; stroke-opacity: 0.8"/>
     <use xlink:href="#mb05d1c357a" x="280.383522" y="39.852347" style="fill: #348abd; fill-opacity: 0.8; stroke: #348abd; stroke-opacity: 0.8"/>
     <use xlink:href="#mb05d1c357a" x="285.018733" y="39.551353" style="fill: #348abd; fill-opacity: 0.8; stroke: #348abd; stroke-opacity: 0.8"/>
     <use xlink:href="#mb05d1c357a" x="289.874953" y="39.590827" style="fill: #348abd; fill-opacity: 0.8; stroke: #348abd; stroke-opacity: 0.8"/>
     <use xlink:href="#mb05d1c357a" x="294.866938" y="39.526681" style="fill: #348abd; fill-opacity: 0.8; stroke: #348abd; stroke-opacity: 0.8"/>
     <use xlink:href="#mb05d1c357a" x="299.925784" y="39.551353" style="fill: #348abd; fill-opacity: 0.8; stroke: #348abd; stroke-opacity: 0.8"/>
     <use xlink:href="#mb05d1c357a" x="304.997455" y="39.590827" style="fill: #348abd; fill-opacity: 0.8; stroke: #348abd; stroke-opacity: 0.8"/>
     <use xlink:href="#mb05d1c357a" x="310.040713" y="39.857281" style="fill: #348abd; fill-opacity: 0.8; stroke: #348abd; stroke-opacity: 0.8"/>
     <use xlink:href="#mb05d1c357a" x="315.024903" y="39.497075" style="fill: #348abd; fill-opacity: 0.8; stroke: #348abd; stroke-opacity: 0.8"/>
     <use xlink:href="#mb05d1c357a" x="319.92788" y="39.502009" style="fill: #348abd; fill-opacity: 0.8; stroke: #348abd; stroke-opacity: 0.8"/>
     <use xlink:href="#mb05d1c357a" x="325.040054" y="39.704317" style="fill: #348abd; fill-opacity: 0.8; stroke: #348abd; stroke-opacity: 0.8"/>
     <use xlink:href="#mb05d1c357a" x="329.99353" y="39.531615" style="fill: #348abd; fill-opacity: 0.8; stroke: #348abd; stroke-opacity: 0.8"/>
     <use xlink:href="#mb05d1c357a" x="335.04498" y="39.645105" style="fill: #348abd; fill-opacity: 0.8; stroke: #348abd; stroke-opacity: 0.8"/>
     <use xlink:href="#mb05d1c357a" x="340.133032" y="39.645105" style="fill: #348abd; fill-opacity: 0.8; stroke: #348abd; stroke-opacity: 0.8"/>
     <use xlink:href="#mb05d1c357a" x="345.2103" y="39.590827" style="fill: #348abd; fill-opacity: 0.8; stroke: #348abd; stroke-opacity: 0.8"/>
     <use xlink:href="#mb05d1c357a" x="350.241156" y="39.674711" style="fill: #348abd; fill-opacity: 0.8; stroke: #348abd; stroke-opacity: 0.8"/>
     <use xlink:href="#mb05d1c357a" x="355.374806" y="161.804412" style="fill: #348abd; fill-opacity: 0.8; stroke: #348abd; stroke-opacity: 0.8"/>
     <use xlink:href="#mb05d1c357a" x="360.546581" y="185.341186" style="fill: #348abd; fill-opacity: 0.8; stroke: #348abd; stroke-opacity: 0.8"/>
     <use xlink:href="#mb05d1c357a" x="365.706752" y="187.763944" style="fill: #348abd; fill-opacity: 0.8; stroke: #348abd; stroke-opacity: 0.8"/>
     <use xlink:href="#mb05d1c357a" x="370.818118" y="188.01066" style="fill: #348abd; fill-opacity: 0.8; stroke: #348abd; stroke-opacity: 0.8"/>
     <use xlink:href="#mb05d1c357a" x="375.973742" y="188.079741" style="fill: #348abd; fill-opacity: 0.8; stroke: #348abd; stroke-opacity: 0.8"/>
     <use xlink:href="#mb05d1c357a" x="381.122773" y="188.15869" style="fill: #348abd; fill-opacity: 0.8; stroke: #348abd; stroke-opacity: 0.8"/>
     <use xlink:href="#mb05d1c357a" x="386.326373" y="188.045201" style="fill: #348abd; fill-opacity: 0.8; stroke: #348abd; stroke-opacity: 0.8"/>
     <use xlink:href="#mb05d1c357a" x="391.529973" y="188.055069" style="fill: #348abd; fill-opacity: 0.8; stroke: #348abd; stroke-opacity: 0.8"/>
     <use xlink:href="#mb05d1c357a" x="396.692539" y="188.064938" style="fill: #348abd; fill-opacity: 0.8; stroke: #348abd; stroke-opacity: 0.8"/>
     <use xlink:href="#mb05d1c357a" x="401.858808" y="188.109347" style="fill: #348abd; fill-opacity: 0.8; stroke: #348abd; stroke-opacity: 0.8"/>
     <use xlink:href="#mb05d1c357a" x="407.055618" y="188.351129" style="fill: #348abd; fill-opacity: 0.8; stroke: #348abd; stroke-opacity: 0.8"/>
     <use xlink:href="#mb05d1c357a" x="412.234519" y="188.356064" style="fill: #348abd; fill-opacity: 0.8; stroke: #348abd; stroke-opacity: 0.8"/>
     <use xlink:href="#mb05d1c357a" x="417.415656" y="188.489291" style="fill: #348abd; fill-opacity: 0.8; stroke: #348abd; stroke-opacity: 0.8"/>
     <use xlink:href="#mb05d1c357a" x="422.609043" y="188.666927" style="fill: #348abd; fill-opacity: 0.8; stroke: #348abd; stroke-opacity: 0.8"/>
     <use xlink:href="#mb05d1c357a" x="427.77084" y="188.819891" style="fill: #348abd; fill-opacity: 0.8; stroke: #348abd; stroke-opacity: 0.8"/>
     <use xlink:href="#mb05d1c357a" x="432.953316" y="189.002462" style="fill: #348abd; fill-opacity: 0.8; stroke: #348abd; stroke-opacity: 0.8"/>
     <use xlink:href="#mb05d1c357a" x="438.149232" y="189.214638" style="fill: #348abd; fill-opacity: 0.8; stroke: #348abd; stroke-opacity: 0.8"/>
     <use xlink:href="#mb05d1c357a" x="443.349339" y="189.214638" style="fill: #348abd; fill-opacity: 0.8; stroke: #348abd; stroke-opacity: 0.8"/>
     <use xlink:href="#mb05d1c357a" x="448.543412" y="189.431749" style="fill: #348abd; fill-opacity: 0.8; stroke: #348abd; stroke-opacity: 0.8"/>
     <use xlink:href="#mb05d1c357a" x="453.72102" y="189.658728" style="fill: #348abd; fill-opacity: 0.8; stroke: #348abd; stroke-opacity: 0.8"/>
     <use xlink:href="#mb05d1c357a" x="458.92462" y="189.959722" style="fill: #348abd; fill-opacity: 0.8; stroke: #348abd; stroke-opacity: 0.8"/>
     <use xlink:href="#mb05d1c357a" x="464.10673" y="190.236045" style="fill: #348abd; fill-opacity: 0.8; stroke: #348abd; stroke-opacity: 0.8"/>
     <use xlink:href="#mb05d1c357a" x="469.297301" y="190.596251" style="fill: #348abd; fill-opacity: 0.8; stroke: #348abd; stroke-opacity: 0.8"/>
     <use xlink:href="#mb05d1c357a" x="474.493004" y="190.961392" style="fill: #348abd; fill-opacity: 0.8; stroke: #348abd; stroke-opacity: 0.8"/>
     <use xlink:href="#mb05d1c357a" x="479.687628" y="191.356139" style="fill: #348abd; fill-opacity: 0.8; stroke: #348abd; stroke-opacity: 0.8"/>
     <use xlink:href="#mb05d1c357a" x="484.889596" y="191.79036" style="fill: #348abd; fill-opacity: 0.8; stroke: #348abd; stroke-opacity: 0.8"/>
     <use xlink:href="#mb05d1c357a" x="490.085777" y="191.918653" style="fill: #348abd; fill-opacity: 0.8; stroke: #348abd; stroke-opacity: 0.8"/>
     <use xlink:href="#mb05d1c357a" x="495.277234" y="191.889047" style="fill: #348abd; fill-opacity: 0.8; stroke: #348abd; stroke-opacity: 0.8"/>
     <use xlink:href="#mb05d1c357a" x="500.473473" y="191.898916" style="fill: #348abd; fill-opacity: 0.8; stroke: #348abd; stroke-opacity: 0.8"/>
     <use xlink:href="#mb05d1c357a" x="505.677073" y="191.893981" style="fill: #348abd; fill-opacity: 0.8; stroke: #348abd; stroke-opacity: 0.8"/>
     <use xlink:href="#mb05d1c357a" x="510.875603" y="191.86931" style="fill: #348abd; fill-opacity: 0.8; stroke: #348abd; stroke-opacity: 0.8"/>
     <use xlink:href="#mb05d1c357a" x="516.075516" y="191.977865" style="fill: #348abd; fill-opacity: 0.8; stroke: #348abd; stroke-opacity: 0.8"/>
     <use xlink:href="#mb05d1c357a" x="521.277439" y="191.864375" style="fill: #348abd; fill-opacity: 0.8; stroke: #348abd; stroke-opacity: 0.8"/>
     <use xlink:href="#mb05d1c357a" x="526.477992" y="191.884113" style="fill: #348abd; fill-opacity: 0.8; stroke: #348abd; stroke-opacity: 0.8"/>
     <use xlink:href="#mb05d1c357a" x="531.678128" y="191.898916" style="fill: #348abd; fill-opacity: 0.8; stroke: #348abd; stroke-opacity: 0.8"/>
     <use xlink:href="#mb05d1c357a" x="536.881098" y="191.90385" style="fill: #348abd; fill-opacity: 0.8; stroke: #348abd; stroke-opacity: 0.8"/>
     <use xlink:href="#mb05d1c357a" x="542.079545" y="191.889047" style="fill: #348abd; fill-opacity: 0.8; stroke: #348abd; stroke-opacity: 0.8"/>
    </g>
   </g>
   <g id="patch_3">
    <path d="M 56.55 235.365464 
L 56.55 10.8 
" style="fill: none; stroke: #bcbcbc; stroke-width: 0.8; stroke-linejoin: miter; stroke-linecap: square"/>
   </g>
   <g id="patch_4">
    <path d="M 565.2 235.365464 
L 565.2 10.8 
" style="fill: none; stroke: #bcbcbc; stroke-width: 0.8; stroke-linejoin: miter; stroke-linecap: square"/>
   </g>
   <g id="patch_5">
    <path d="M 56.55 235.365464 
L 565.2 235.365464 
" style="fill: none; stroke: #bcbcbc; stroke-width: 0.8; stroke-linejoin: miter; stroke-linecap: square"/>
   </g>
   <g id="patch_6">
    <path d="M 56.55 10.8 
L 565.2 10.8 
" style="fill: none; stroke: #bcbcbc; stroke-width: 0.8; stroke-linejoin: miter; stroke-linecap: square"/>
   </g>
   <g id="legend_1">
    <g id="patch_7">
     <path d="M 500.75 33.478125 
L 558.2 33.478125 
Q 560.2 33.478125 560.2 31.478125 
L 560.2 17.8 
Q 560.2 15.8 558.2 15.8 
L 500.75 15.8 
Q 498.75 15.8 498.75 17.8 
L 498.75 31.478125 
Q 498.75 33.478125 500.75 33.478125 
z
" style="fill: #eeeeee; opacity: 0.8; stroke: #cccccc; stroke-width: 0.5; stroke-linejoin: miter"/>
    </g>
    <g id="line2d_26">
     <path d="M 502.75 23.898438 
L 512.75 23.898438 
L 522.75 23.898438 
" style="fill: none; stroke: #348abd; stroke-opacity: 0.8; stroke-width: 3; stroke-linecap: square"/>
     <g>
      <use xlink:href="#mb05d1c357a" x="512.75" y="23.898438" style="fill: #348abd; fill-opacity: 0.8; stroke: #348abd; stroke-opacity: 0.8"/>
     </g>
    </g>
    <g id="text_15">
     <!-- 4090 -->
     <g transform="translate(530.75 27.398438) scale(0.1 -0.1)">
      <defs>
       <path id="DejaVuSans-39" d="M 703 97 
L 703 672 
Q 941 559 1184 500 
Q 1428 441 1663 441 
Q 2288 441 2617 861 
Q 2947 1281 2994 2138 
Q 2813 1869 2534 1725 
Q 2256 1581 1919 1581 
Q 1219 1581 811 2004 
Q 403 2428 403 3163 
Q 403 3881 828 4315 
Q 1253 4750 1959 4750 
Q 2769 4750 3195 4129 
Q 3622 3509 3622 2328 
Q 3622 1225 3098 567 
Q 2575 -91 1691 -91 
Q 1453 -91 1209 -44 
Q 966 3 703 97 
z
M 1959 2075 
Q 2384 2075 2632 2365 
Q 2881 2656 2881 3163 
Q 2881 3666 2632 3958 
Q 2384 4250 1959 4250 
Q 1534 4250 1286 3958 
Q 1038 3666 1038 3163 
Q 1038 2656 1286 2365 
Q 1534 2075 1959 2075 
z
" transform="scale(0.015625)"/>
      </defs>
      <use xlink:href="#DejaVuSans-34"/>
      <use xlink:href="#DejaVuSans-30" x="63.623047"/>
      <use xlink:href="#DejaVuSans-39" x="127.246094"/>
      <use xlink:href="#DejaVuSans-30" x="190.869141"/>
     </g>
    </g>
   </g>
  </g>
 </g>
 <defs>
  <clipPath id="p58408cc69c">
   <rect x="56.55" y="10.8" width="508.65" height="224.565464"/>
  </clipPath>
 </defs>
</svg>
