<?xml version="1.0" encoding="utf-8" standalone="no"?>
<!DOCTYPE svg PUBLIC "-//W3C//DTD SVG 1.1//EN"
  "http://www.w3.org/Graphics/SVG/1.1/DTD/svg11.dtd">
<svg xmlns:xlink="http://www.w3.org/1999/xlink" width="576pt" height="288pt" viewBox="0 0 576 288" xmlns="http://www.w3.org/2000/svg" version="1.1">
 <metadata>
  <rdf:RDF xmlns:dc="http://purl.org/dc/elements/1.1/" xmlns:cc="http://creativecommons.org/ns#" xmlns:rdf="http://www.w3.org/1999/02/22-rdf-syntax-ns#">
   <cc:Work>
    <dc:type rdf:resource="http://purl.org/dc/dcmitype/StillImage"/>
    <dc:date>2024-01-26T14:03:02.988414</dc:date>
    <dc:format>image/svg+xml</dc:format>
    <dc:creator>
     <cc:Agent>
      <dc:title>Matplotlib v3.8.2, https://matplotlib.org/</dc:title>
     </cc:Agent>
    </dc:creator>
   </cc:Work>
  </rdf:RDF>
 </metadata>
 <defs>
  <style type="text/css">*{stroke-linejoin: round; stroke-linecap: butt}</style>
 </defs>
 <g id="figure_1">
  <g id="patch_1">
   <path d="M 0 288 
L 576 288 
L 576 0 
L 0 0 
z
" style="fill: #ffffff"/>
  </g>
  <g id="axes_1">
   <g id="patch_2">
    <path d="M 62.85 229.110464 
L 565.2 229.110464 
L 565.2 10.8 
L 62.85 10.8 
z
" style="fill: #eeeeee"/>
   </g>
   <g id="matplotlib.axis_1">
    <g id="xtick_1">
     <g id="line2d_1">
      <path d="M 96.59001 229.110464 
L 96.59001 10.8 
" clip-path="url(#pd3c69b69f5)" style="fill: none; stroke-dasharray: 1.85,0.8; stroke-dashoffset: 0; stroke: #b2b2b2; stroke-width: 0.5"/>
     </g>
     <g id="line2d_2">
      <defs>
       <path id="m28d0321290" d="M 0 0 
L 0 -3.5 
" style="stroke: #000000; stroke-width: 0.8"/>
      </defs>
      <g>
       <use xlink:href="#m28d0321290" x="96.59001" y="229.110464" style="stroke: #000000; stroke-width: 0.8"/>
      </g>
     </g>
     <g id="text_1">
      <!-- 4 kB -->
      <g transform="translate(76.331168 250.286998) rotate(-30) scale(0.1 -0.1)">
       <defs>
        <path id="DejaVuSans-34" d="M 2419 4116 
L 825 1625 
L 2419 1625 
L 2419 4116 
z
M 2253 4666 
L 3047 4666 
L 3047 1625 
L 3713 1625 
L 3713 1100 
L 3047 1100 
L 3047 0 
L 2419 0 
L 2419 1100 
L 313 1100 
L 313 1709 
L 2253 4666 
z
" transform="scale(0.015625)"/>
        <path id="DejaVuSans-20" transform="scale(0.015625)"/>
        <path id="DejaVuSans-6b" d="M 581 4863 
L 1159 4863 
L 1159 1991 
L 2875 3500 
L 3609 3500 
L 1753 1863 
L 3688 0 
L 2938 0 
L 1159 1709 
L 1159 0 
L 581 0 
L 581 4863 
z
" transform="scale(0.015625)"/>
        <path id="DejaVuSans-42" d="M 1259 2228 
L 1259 519 
L 2272 519 
Q 2781 519 3026 730 
Q 3272 941 3272 1375 
Q 3272 1813 3026 2020 
Q 2781 2228 2272 2228 
L 1259 2228 
z
M 1259 4147 
L 1259 2741 
L 2194 2741 
Q 2656 2741 2882 2914 
Q 3109 3088 3109 3444 
Q 3109 3797 2882 3972 
Q 2656 4147 2194 4147 
L 1259 4147 
z
M 628 4666 
L 2241 4666 
Q 2963 4666 3353 4366 
Q 3744 4066 3744 3513 
Q 3744 3084 3544 2831 
Q 3344 2578 2956 2516 
Q 3422 2416 3680 2098 
Q 3938 1781 3938 1306 
Q 3938 681 3513 340 
Q 3088 0 2303 0 
L 628 0 
L 628 4666 
z
" transform="scale(0.015625)"/>
       </defs>
       <use xlink:href="#DejaVuSans-34"/>
       <use xlink:href="#DejaVuSans-20" x="63.623047"/>
       <use xlink:href="#DejaVuSans-6b" x="95.410156"/>
       <use xlink:href="#DejaVuSans-42" x="153.320312"/>
      </g>
     </g>
    </g>
    <g id="xtick_2">
     <g id="line2d_3">
      <path d="M 155.166259 229.110464 
L 155.166259 10.8 
" clip-path="url(#pd3c69b69f5)" style="fill: none; stroke-dasharray: 1.85,0.8; stroke-dashoffset: 0; stroke: #b2b2b2; stroke-width: 0.5"/>
     </g>
     <g id="line2d_4">
      <g>
       <use xlink:href="#m28d0321290" x="155.166259" y="229.110464" style="stroke: #000000; stroke-width: 0.8"/>
      </g>
     </g>
     <g id="text_2">
      <!-- 16 kB -->
      <g transform="translate(129.39733 253.468248) rotate(-30) scale(0.1 -0.1)">
       <defs>
        <path id="DejaVuSans-31" d="M 794 531 
L 1825 531 
L 1825 4091 
L 703 3866 
L 703 4441 
L 1819 4666 
L 2450 4666 
L 2450 531 
L 3481 531 
L 3481 0 
L 794 0 
L 794 531 
z
" transform="scale(0.015625)"/>
        <path id="DejaVuSans-36" d="M 2113 2584 
Q 1688 2584 1439 2293 
Q 1191 2003 1191 1497 
Q 1191 994 1439 701 
Q 1688 409 2113 409 
Q 2538 409 2786 701 
Q 3034 994 3034 1497 
Q 3034 2003 2786 2293 
Q 2538 2584 2113 2584 
z
M 3366 4563 
L 3366 3988 
Q 3128 4100 2886 4159 
Q 2644 4219 2406 4219 
Q 1781 4219 1451 3797 
Q 1122 3375 1075 2522 
Q 1259 2794 1537 2939 
Q 1816 3084 2150 3084 
Q 2853 3084 3261 2657 
Q 3669 2231 3669 1497 
Q 3669 778 3244 343 
Q 2819 -91 2113 -91 
Q 1303 -91 875 529 
Q 447 1150 447 2328 
Q 447 3434 972 4092 
Q 1497 4750 2381 4750 
Q 2619 4750 2861 4703 
Q 3103 4656 3366 4563 
z
" transform="scale(0.015625)"/>
       </defs>
       <use xlink:href="#DejaVuSans-31"/>
       <use xlink:href="#DejaVuSans-36" x="63.623047"/>
       <use xlink:href="#DejaVuSans-20" x="127.246094"/>
       <use xlink:href="#DejaVuSans-6b" x="159.033203"/>
       <use xlink:href="#DejaVuSans-42" x="216.943359"/>
      </g>
     </g>
    </g>
    <g id="xtick_3">
     <g id="line2d_5">
      <path d="M 243.030632 229.110464 
L 243.030632 10.8 
" clip-path="url(#pd3c69b69f5)" style="fill: none; stroke-dasharray: 1.85,0.8; stroke-dashoffset: 0; stroke: #b2b2b2; stroke-width: 0.5"/>
     </g>
     <g id="line2d_6">
      <g>
       <use xlink:href="#m28d0321290" x="243.030632" y="229.110464" style="stroke: #000000; stroke-width: 0.8"/>
      </g>
     </g>
     <g id="text_3">
      <!-- 128 kB -->
      <g transform="translate(211.751617 256.649498) rotate(-30) scale(0.1 -0.1)">
       <defs>
        <path id="DejaVuSans-32" d="M 1228 531 
L 3431 531 
L 3431 0 
L 469 0 
L 469 531 
Q 828 903 1448 1529 
Q 2069 2156 2228 2338 
Q 2531 2678 2651 2914 
Q 2772 3150 2772 3378 
Q 2772 3750 2511 3984 
Q 2250 4219 1831 4219 
Q 1534 4219 1204 4116 
Q 875 4013 500 3803 
L 500 4441 
Q 881 4594 1212 4672 
Q 1544 4750 1819 4750 
Q 2544 4750 2975 4387 
Q 3406 4025 3406 3419 
Q 3406 3131 3298 2873 
Q 3191 2616 2906 2266 
Q 2828 2175 2409 1742 
Q 1991 1309 1228 531 
z
" transform="scale(0.015625)"/>
        <path id="DejaVuSans-38" d="M 2034 2216 
Q 1584 2216 1326 1975 
Q 1069 1734 1069 1313 
Q 1069 891 1326 650 
Q 1584 409 2034 409 
Q 2484 409 2743 651 
Q 3003 894 3003 1313 
Q 3003 1734 2745 1975 
Q 2488 2216 2034 2216 
z
M 1403 2484 
Q 997 2584 770 2862 
Q 544 3141 544 3541 
Q 544 4100 942 4425 
Q 1341 4750 2034 4750 
Q 2731 4750 3128 4425 
Q 3525 4100 3525 3541 
Q 3525 3141 3298 2862 
Q 3072 2584 2669 2484 
Q 3125 2378 3379 2068 
Q 3634 1759 3634 1313 
Q 3634 634 3220 271 
Q 2806 -91 2034 -91 
Q 1263 -91 848 271 
Q 434 634 434 1313 
Q 434 1759 690 2068 
Q 947 2378 1403 2484 
z
M 1172 3481 
Q 1172 3119 1398 2916 
Q 1625 2713 2034 2713 
Q 2441 2713 2670 2916 
Q 2900 3119 2900 3481 
Q 2900 3844 2670 4047 
Q 2441 4250 2034 4250 
Q 1625 4250 1398 4047 
Q 1172 3844 1172 3481 
z
" transform="scale(0.015625)"/>
       </defs>
       <use xlink:href="#DejaVuSans-31"/>
       <use xlink:href="#DejaVuSans-32" x="63.623047"/>
       <use xlink:href="#DejaVuSans-38" x="127.246094"/>
       <use xlink:href="#DejaVuSans-20" x="190.869141"/>
       <use xlink:href="#DejaVuSans-6b" x="222.65625"/>
       <use xlink:href="#DejaVuSans-42" x="280.566406"/>
      </g>
     </g>
    </g>
    <g id="xtick_4">
     <g id="line2d_7">
      <path d="M 272.318756 229.110464 
L 272.318756 10.8 
" clip-path="url(#pd3c69b69f5)" style="fill: none; stroke-dasharray: 1.85,0.8; stroke-dashoffset: 0; stroke: #b2b2b2; stroke-width: 0.5"/>
     </g>
     <g id="line2d_8">
      <g>
       <use xlink:href="#m28d0321290" x="272.318756" y="229.110464" style="stroke: #000000; stroke-width: 0.8"/>
      </g>
     </g>
     <g id="text_4">
      <!-- 256 kB -->
      <g transform="translate(241.039741 256.649498) rotate(-30) scale(0.1 -0.1)">
       <defs>
        <path id="DejaVuSans-35" d="M 691 4666 
L 3169 4666 
L 3169 4134 
L 1269 4134 
L 1269 2991 
Q 1406 3038 1543 3061 
Q 1681 3084 1819 3084 
Q 2600 3084 3056 2656 
Q 3513 2228 3513 1497 
Q 3513 744 3044 326 
Q 2575 -91 1722 -91 
Q 1428 -91 1123 -41 
Q 819 9 494 109 
L 494 744 
Q 775 591 1075 516 
Q 1375 441 1709 441 
Q 2250 441 2565 725 
Q 2881 1009 2881 1497 
Q 2881 1984 2565 2268 
Q 2250 2553 1709 2553 
Q 1456 2553 1204 2497 
Q 953 2441 691 2322 
L 691 4666 
z
" transform="scale(0.015625)"/>
       </defs>
       <use xlink:href="#DejaVuSans-32"/>
       <use xlink:href="#DejaVuSans-35" x="63.623047"/>
       <use xlink:href="#DejaVuSans-36" x="127.246094"/>
       <use xlink:href="#DejaVuSans-20" x="190.869141"/>
       <use xlink:href="#DejaVuSans-6b" x="222.65625"/>
       <use xlink:href="#DejaVuSans-42" x="280.566406"/>
      </g>
     </g>
    </g>
    <g id="xtick_5">
     <g id="line2d_9">
      <path d="M 406.603708 229.110464 
L 406.603708 10.8 
" clip-path="url(#pd3c69b69f5)" style="fill: none; stroke-dasharray: 1.85,0.8; stroke-dashoffset: 0; stroke: #b2b2b2; stroke-width: 0.5"/>
     </g>
     <g id="line2d_10">
      <g>
       <use xlink:href="#m28d0321290" x="406.603708" y="229.110464" style="stroke: #000000; stroke-width: 0.8"/>
      </g>
     </g>
     <g id="text_5">
      <!-- 6 MB -->
      <g transform="translate(383.887519 251.705748) rotate(-30) scale(0.1 -0.1)">
       <defs>
        <path id="DejaVuSans-4d" d="M 628 4666 
L 1569 4666 
L 2759 1491 
L 3956 4666 
L 4897 4666 
L 4897 0 
L 4281 0 
L 4281 4097 
L 3078 897 
L 2444 897 
L 1241 4097 
L 1241 0 
L 628 0 
L 628 4666 
z
" transform="scale(0.015625)"/>
       </defs>
       <use xlink:href="#DejaVuSans-36"/>
       <use xlink:href="#DejaVuSans-20" x="63.623047"/>
       <use xlink:href="#DejaVuSans-4d" x="95.410156"/>
       <use xlink:href="#DejaVuSans-42" x="181.689453"/>
      </g>
     </g>
    </g>
    <g id="xtick_6">
     <g id="line2d_11">
      <path d="M 457.476173 229.110464 
L 457.476173 10.8 
" clip-path="url(#pd3c69b69f5)" style="fill: none; stroke-dasharray: 1.85,0.8; stroke-dashoffset: 0; stroke: #b2b2b2; stroke-width: 0.5"/>
     </g>
     <g id="line2d_12">
      <g>
       <use xlink:href="#m28d0321290" x="457.476173" y="229.110464" style="stroke: #000000; stroke-width: 0.8"/>
      </g>
     </g>
     <g id="text_6">
      <!-- 20 MB -->
      <g transform="translate(429.249897 254.886998) rotate(-30) scale(0.1 -0.1)">
       <defs>
        <path id="DejaVuSans-30" d="M 2034 4250 
Q 1547 4250 1301 3770 
Q 1056 3291 1056 2328 
Q 1056 1369 1301 889 
Q 1547 409 2034 409 
Q 2525 409 2770 889 
Q 3016 1369 3016 2328 
Q 3016 3291 2770 3770 
Q 2525 4250 2034 4250 
z
M 2034 4750 
Q 2819 4750 3233 4129 
Q 3647 3509 3647 2328 
Q 3647 1150 3233 529 
Q 2819 -91 2034 -91 
Q 1250 -91 836 529 
Q 422 1150 422 2328 
Q 422 3509 836 4129 
Q 1250 4750 2034 4750 
z
" transform="scale(0.015625)"/>
       </defs>
       <use xlink:href="#DejaVuSans-32"/>
       <use xlink:href="#DejaVuSans-30" x="63.623047"/>
       <use xlink:href="#DejaVuSans-20" x="127.246094"/>
       <use xlink:href="#DejaVuSans-4d" x="159.033203"/>
       <use xlink:href="#DejaVuSans-42" x="245.3125"/>
      </g>
     </g>
    </g>
    <g id="xtick_7">
     <g id="line2d_13">
      <path d="M 486.764297 229.110464 
L 486.764297 10.8 
" clip-path="url(#pd3c69b69f5)" style="fill: none; stroke-dasharray: 1.85,0.8; stroke-dashoffset: 0; stroke: #b2b2b2; stroke-width: 0.5"/>
     </g>
     <g id="line2d_14">
      <g>
       <use xlink:href="#m28d0321290" x="486.764297" y="229.110464" style="stroke: #000000; stroke-width: 0.8"/>
      </g>
     </g>
     <g id="text_7">
      <!-- 40 MB -->
      <g transform="translate(458.538021 254.886998) rotate(-30) scale(0.1 -0.1)">
       <use xlink:href="#DejaVuSans-34"/>
       <use xlink:href="#DejaVuSans-30" x="63.623047"/>
       <use xlink:href="#DejaVuSans-20" x="127.246094"/>
       <use xlink:href="#DejaVuSans-4d" x="159.033203"/>
       <use xlink:href="#DejaVuSans-42" x="245.3125"/>
      </g>
     </g>
    </g>
    <g id="xtick_8">
     <g id="line2d_15">
      <path d="M 535.911876 229.110464 
L 535.911876 10.8 
" clip-path="url(#pd3c69b69f5)" style="fill: none; stroke-dasharray: 1.85,0.8; stroke-dashoffset: 0; stroke: #b2b2b2; stroke-width: 0.5"/>
     </g>
     <g id="line2d_16">
      <g>
       <use xlink:href="#m28d0321290" x="535.911876" y="229.110464" style="stroke: #000000; stroke-width: 0.8"/>
      </g>
     </g>
     <g id="text_8">
      <!-- 128 MB -->
      <g transform="translate(502.175513 258.068248) rotate(-30) scale(0.1 -0.1)">
       <use xlink:href="#DejaVuSans-31"/>
       <use xlink:href="#DejaVuSans-32" x="63.623047"/>
       <use xlink:href="#DejaVuSans-38" x="127.246094"/>
       <use xlink:href="#DejaVuSans-20" x="190.869141"/>
       <use xlink:href="#DejaVuSans-4d" x="222.65625"/>
       <use xlink:href="#DejaVuSans-42" x="308.935547"/>
      </g>
     </g>
    </g>
    <g id="text_9">
     <!-- Data Vol. per SM -->
     <g transform="translate(264.140625 272.987435) scale(0.12 -0.12)">
      <defs>
       <path id="DejaVuSans-44" d="M 1259 4147 
L 1259 519 
L 2022 519 
Q 2988 519 3436 956 
Q 3884 1394 3884 2338 
Q 3884 3275 3436 3711 
Q 2988 4147 2022 4147 
L 1259 4147 
z
M 628 4666 
L 1925 4666 
Q 3281 4666 3915 4102 
Q 4550 3538 4550 2338 
Q 4550 1131 3912 565 
Q 3275 0 1925 0 
L 628 0 
L 628 4666 
z
" transform="scale(0.015625)"/>
       <path id="DejaVuSans-61" d="M 2194 1759 
Q 1497 1759 1228 1600 
Q 959 1441 959 1056 
Q 959 750 1161 570 
Q 1363 391 1709 391 
Q 2188 391 2477 730 
Q 2766 1069 2766 1631 
L 2766 1759 
L 2194 1759 
z
M 3341 1997 
L 3341 0 
L 2766 0 
L 2766 531 
Q 2569 213 2275 61 
Q 1981 -91 1556 -91 
Q 1019 -91 701 211 
Q 384 513 384 1019 
Q 384 1609 779 1909 
Q 1175 2209 1959 2209 
L 2766 2209 
L 2766 2266 
Q 2766 2663 2505 2880 
Q 2244 3097 1772 3097 
Q 1472 3097 1187 3025 
Q 903 2953 641 2809 
L 641 3341 
Q 956 3463 1253 3523 
Q 1550 3584 1831 3584 
Q 2591 3584 2966 3190 
Q 3341 2797 3341 1997 
z
" transform="scale(0.015625)"/>
       <path id="DejaVuSans-74" d="M 1172 4494 
L 1172 3500 
L 2356 3500 
L 2356 3053 
L 1172 3053 
L 1172 1153 
Q 1172 725 1289 603 
Q 1406 481 1766 481 
L 2356 481 
L 2356 0 
L 1766 0 
Q 1100 0 847 248 
Q 594 497 594 1153 
L 594 3053 
L 172 3053 
L 172 3500 
L 594 3500 
L 594 4494 
L 1172 4494 
z
" transform="scale(0.015625)"/>
       <path id="DejaVuSans-56" d="M 1831 0 
L 50 4666 
L 709 4666 
L 2188 738 
L 3669 4666 
L 4325 4666 
L 2547 0 
L 1831 0 
z
" transform="scale(0.015625)"/>
       <path id="DejaVuSans-6f" d="M 1959 3097 
Q 1497 3097 1228 2736 
Q 959 2375 959 1747 
Q 959 1119 1226 758 
Q 1494 397 1959 397 
Q 2419 397 2687 759 
Q 2956 1122 2956 1747 
Q 2956 2369 2687 2733 
Q 2419 3097 1959 3097 
z
M 1959 3584 
Q 2709 3584 3137 3096 
Q 3566 2609 3566 1747 
Q 3566 888 3137 398 
Q 2709 -91 1959 -91 
Q 1206 -91 779 398 
Q 353 888 353 1747 
Q 353 2609 779 3096 
Q 1206 3584 1959 3584 
z
" transform="scale(0.015625)"/>
       <path id="DejaVuSans-6c" d="M 603 4863 
L 1178 4863 
L 1178 0 
L 603 0 
L 603 4863 
z
" transform="scale(0.015625)"/>
       <path id="DejaVuSans-2e" d="M 684 794 
L 1344 794 
L 1344 0 
L 684 0 
L 684 794 
z
" transform="scale(0.015625)"/>
       <path id="DejaVuSans-70" d="M 1159 525 
L 1159 -1331 
L 581 -1331 
L 581 3500 
L 1159 3500 
L 1159 2969 
Q 1341 3281 1617 3432 
Q 1894 3584 2278 3584 
Q 2916 3584 3314 3078 
Q 3713 2572 3713 1747 
Q 3713 922 3314 415 
Q 2916 -91 2278 -91 
Q 1894 -91 1617 61 
Q 1341 213 1159 525 
z
M 3116 1747 
Q 3116 2381 2855 2742 
Q 2594 3103 2138 3103 
Q 1681 3103 1420 2742 
Q 1159 2381 1159 1747 
Q 1159 1113 1420 752 
Q 1681 391 2138 391 
Q 2594 391 2855 752 
Q 3116 1113 3116 1747 
z
" transform="scale(0.015625)"/>
       <path id="DejaVuSans-65" d="M 3597 1894 
L 3597 1613 
L 953 1613 
Q 991 1019 1311 708 
Q 1631 397 2203 397 
Q 2534 397 2845 478 
Q 3156 559 3463 722 
L 3463 178 
Q 3153 47 2828 -22 
Q 2503 -91 2169 -91 
Q 1331 -91 842 396 
Q 353 884 353 1716 
Q 353 2575 817 3079 
Q 1281 3584 2069 3584 
Q 2775 3584 3186 3129 
Q 3597 2675 3597 1894 
z
M 3022 2063 
Q 3016 2534 2758 2815 
Q 2500 3097 2075 3097 
Q 1594 3097 1305 2825 
Q 1016 2553 972 2059 
L 3022 2063 
z
" transform="scale(0.015625)"/>
       <path id="DejaVuSans-72" d="M 2631 2963 
Q 2534 3019 2420 3045 
Q 2306 3072 2169 3072 
Q 1681 3072 1420 2755 
Q 1159 2438 1159 1844 
L 1159 0 
L 581 0 
L 581 3500 
L 1159 3500 
L 1159 2956 
Q 1341 3275 1631 3429 
Q 1922 3584 2338 3584 
Q 2397 3584 2469 3576 
Q 2541 3569 2628 3553 
L 2631 2963 
z
" transform="scale(0.015625)"/>
       <path id="DejaVuSans-53" d="M 3425 4513 
L 3425 3897 
Q 3066 4069 2747 4153 
Q 2428 4238 2131 4238 
Q 1616 4238 1336 4038 
Q 1056 3838 1056 3469 
Q 1056 3159 1242 3001 
Q 1428 2844 1947 2747 
L 2328 2669 
Q 3034 2534 3370 2195 
Q 3706 1856 3706 1288 
Q 3706 609 3251 259 
Q 2797 -91 1919 -91 
Q 1588 -91 1214 -16 
Q 841 59 441 206 
L 441 856 
Q 825 641 1194 531 
Q 1563 422 1919 422 
Q 2459 422 2753 634 
Q 3047 847 3047 1241 
Q 3047 1584 2836 1778 
Q 2625 1972 2144 2069 
L 1759 2144 
Q 1053 2284 737 2584 
Q 422 2884 422 3419 
Q 422 4038 858 4394 
Q 1294 4750 2059 4750 
Q 2388 4750 2728 4690 
Q 3069 4631 3425 4513 
z
" transform="scale(0.015625)"/>
      </defs>
      <use xlink:href="#DejaVuSans-44"/>
      <use xlink:href="#DejaVuSans-61" x="77.001953"/>
      <use xlink:href="#DejaVuSans-74" x="138.28125"/>
      <use xlink:href="#DejaVuSans-61" x="177.490234"/>
      <use xlink:href="#DejaVuSans-20" x="238.769531"/>
      <use xlink:href="#DejaVuSans-56" x="270.556641"/>
      <use xlink:href="#DejaVuSans-6f" x="331.214844"/>
      <use xlink:href="#DejaVuSans-6c" x="392.396484"/>
      <use xlink:href="#DejaVuSans-2e" x="420.179688"/>
      <use xlink:href="#DejaVuSans-20" x="451.966797"/>
      <use xlink:href="#DejaVuSans-70" x="483.753906"/>
      <use xlink:href="#DejaVuSans-65" x="547.230469"/>
      <use xlink:href="#DejaVuSans-72" x="608.753906"/>
      <use xlink:href="#DejaVuSans-20" x="649.867188"/>
      <use xlink:href="#DejaVuSans-53" x="681.654297"/>
      <use xlink:href="#DejaVuSans-4d" x="745.130859"/>
     </g>
    </g>
   </g>
   <g id="matplotlib.axis_2">
    <g id="ytick_1">
     <g id="line2d_17">
      <path d="M 62.85 229.110464 
L 565.2 229.110464 
" clip-path="url(#pd3c69b69f5)" style="fill: none; stroke-dasharray: 1.85,0.8; stroke-dashoffset: 0; stroke: #b2b2b2; stroke-width: 0.5"/>
     </g>
     <g id="line2d_18">
      <defs>
       <path id="m8856e04545" d="M 0 0 
L 3.5 0 
" style="stroke: #000000; stroke-width: 0.8"/>
      </defs>
      <g>
       <use xlink:href="#m8856e04545" x="62.85" y="229.110464" style="stroke: #000000; stroke-width: 0.8"/>
      </g>
     </g>
     <g id="text_10">
      <!-- 0 -->
      <g transform="translate(52.9875 232.909683) scale(0.1 -0.1)">
       <use xlink:href="#DejaVuSans-30"/>
      </g>
     </g>
    </g>
    <g id="ytick_2">
     <g id="line2d_19">
      <path d="M 62.85 186.805066 
L 565.2 186.805066 
" clip-path="url(#pd3c69b69f5)" style="fill: none; stroke-dasharray: 1.85,0.8; stroke-dashoffset: 0; stroke: #b2b2b2; stroke-width: 0.5"/>
     </g>
     <g id="line2d_20">
      <g>
       <use xlink:href="#m8856e04545" x="62.85" y="186.805066" style="stroke: #000000; stroke-width: 0.8"/>
      </g>
     </g>
     <g id="text_11">
      <!-- 5000 -->
      <g transform="translate(33.9 190.604284) scale(0.1 -0.1)">
       <use xlink:href="#DejaVuSans-35"/>
       <use xlink:href="#DejaVuSans-30" x="63.623047"/>
       <use xlink:href="#DejaVuSans-30" x="127.246094"/>
       <use xlink:href="#DejaVuSans-30" x="190.869141"/>
      </g>
     </g>
    </g>
    <g id="ytick_3">
     <g id="line2d_21">
      <path d="M 62.85 144.499667 
L 565.2 144.499667 
" clip-path="url(#pd3c69b69f5)" style="fill: none; stroke-dasharray: 1.85,0.8; stroke-dashoffset: 0; stroke: #b2b2b2; stroke-width: 0.5"/>
     </g>
     <g id="line2d_22">
      <g>
       <use xlink:href="#m8856e04545" x="62.85" y="144.499667" style="stroke: #000000; stroke-width: 0.8"/>
      </g>
     </g>
     <g id="text_12">
      <!-- 10000 -->
      <g transform="translate(27.5375 148.298886) scale(0.1 -0.1)">
       <use xlink:href="#DejaVuSans-31"/>
       <use xlink:href="#DejaVuSans-30" x="63.623047"/>
       <use xlink:href="#DejaVuSans-30" x="127.246094"/>
       <use xlink:href="#DejaVuSans-30" x="190.869141"/>
       <use xlink:href="#DejaVuSans-30" x="254.492188"/>
      </g>
     </g>
    </g>
    <g id="ytick_4">
     <g id="line2d_23">
      <path d="M 62.85 102.194269 
L 565.2 102.194269 
" clip-path="url(#pd3c69b69f5)" style="fill: none; stroke-dasharray: 1.85,0.8; stroke-dashoffset: 0; stroke: #b2b2b2; stroke-width: 0.5"/>
     </g>
     <g id="line2d_24">
      <g>
       <use xlink:href="#m8856e04545" x="62.85" y="102.194269" style="stroke: #000000; stroke-width: 0.8"/>
      </g>
     </g>
     <g id="text_13">
      <!-- 15000 -->
      <g transform="translate(27.5375 105.993487) scale(0.1 -0.1)">
       <use xlink:href="#DejaVuSans-31"/>
       <use xlink:href="#DejaVuSans-35" x="63.623047"/>
       <use xlink:href="#DejaVuSans-30" x="127.246094"/>
       <use xlink:href="#DejaVuSans-30" x="190.869141"/>
       <use xlink:href="#DejaVuSans-30" x="254.492188"/>
      </g>
     </g>
    </g>
    <g id="ytick_5">
     <g id="line2d_25">
      <path d="M 62.85 59.88887 
L 565.2 59.88887 
" clip-path="url(#pd3c69b69f5)" style="fill: none; stroke-dasharray: 1.85,0.8; stroke-dashoffset: 0; stroke: #b2b2b2; stroke-width: 0.5"/>
     </g>
     <g id="line2d_26">
      <g>
       <use xlink:href="#m8856e04545" x="62.85" y="59.88887" style="stroke: #000000; stroke-width: 0.8"/>
      </g>
     </g>
     <g id="text_14">
      <!-- 20000 -->
      <g transform="translate(27.5375 63.688089) scale(0.1 -0.1)">
       <use xlink:href="#DejaVuSans-32"/>
       <use xlink:href="#DejaVuSans-30" x="63.623047"/>
       <use xlink:href="#DejaVuSans-30" x="127.246094"/>
       <use xlink:href="#DejaVuSans-30" x="190.869141"/>
       <use xlink:href="#DejaVuSans-30" x="254.492188"/>
      </g>
     </g>
    </g>
    <g id="ytick_6">
     <g id="line2d_27">
      <path d="M 62.85 17.583472 
L 565.2 17.583472 
" clip-path="url(#pd3c69b69f5)" style="fill: none; stroke-dasharray: 1.85,0.8; stroke-dashoffset: 0; stroke: #b2b2b2; stroke-width: 0.5"/>
     </g>
     <g id="line2d_28">
      <g>
       <use xlink:href="#m8856e04545" x="62.85" y="17.583472" style="stroke: #000000; stroke-width: 0.8"/>
      </g>
     </g>
     <g id="text_15">
      <!-- 25000 -->
      <g transform="translate(27.5375 21.382691) scale(0.1 -0.1)">
       <use xlink:href="#DejaVuSans-32"/>
       <use xlink:href="#DejaVuSans-35" x="63.623047"/>
       <use xlink:href="#DejaVuSans-30" x="127.246094"/>
       <use xlink:href="#DejaVuSans-30" x="190.869141"/>
       <use xlink:href="#DejaVuSans-30" x="254.492188"/>
      </g>
     </g>
    </g>
    <g id="text_16">
     <!-- Bandwidth (GB/s) -->
     <g transform="translate(21.041875 172.398982) rotate(-90) scale(0.12 -0.12)">
      <defs>
       <path id="DejaVuSans-6e" d="M 3513 2113 
L 3513 0 
L 2938 0 
L 2938 2094 
Q 2938 2591 2744 2837 
Q 2550 3084 2163 3084 
Q 1697 3084 1428 2787 
Q 1159 2491 1159 1978 
L 1159 0 
L 581 0 
L 581 3500 
L 1159 3500 
L 1159 2956 
Q 1366 3272 1645 3428 
Q 1925 3584 2291 3584 
Q 2894 3584 3203 3211 
Q 3513 2838 3513 2113 
z
" transform="scale(0.015625)"/>
       <path id="DejaVuSans-64" d="M 2906 2969 
L 2906 4863 
L 3481 4863 
L 3481 0 
L 2906 0 
L 2906 525 
Q 2725 213 2448 61 
Q 2172 -91 1784 -91 
Q 1150 -91 751 415 
Q 353 922 353 1747 
Q 353 2572 751 3078 
Q 1150 3584 1784 3584 
Q 2172 3584 2448 3432 
Q 2725 3281 2906 2969 
z
M 947 1747 
Q 947 1113 1208 752 
Q 1469 391 1925 391 
Q 2381 391 2643 752 
Q 2906 1113 2906 1747 
Q 2906 2381 2643 2742 
Q 2381 3103 1925 3103 
Q 1469 3103 1208 2742 
Q 947 2381 947 1747 
z
" transform="scale(0.015625)"/>
       <path id="DejaVuSans-77" d="M 269 3500 
L 844 3500 
L 1563 769 
L 2278 3500 
L 2956 3500 
L 3675 769 
L 4391 3500 
L 4966 3500 
L 4050 0 
L 3372 0 
L 2619 2869 
L 1863 0 
L 1184 0 
L 269 3500 
z
" transform="scale(0.015625)"/>
       <path id="DejaVuSans-69" d="M 603 3500 
L 1178 3500 
L 1178 0 
L 603 0 
L 603 3500 
z
M 603 4863 
L 1178 4863 
L 1178 4134 
L 603 4134 
L 603 4863 
z
" transform="scale(0.015625)"/>
       <path id="DejaVuSans-68" d="M 3513 2113 
L 3513 0 
L 2938 0 
L 2938 2094 
Q 2938 2591 2744 2837 
Q 2550 3084 2163 3084 
Q 1697 3084 1428 2787 
Q 1159 2491 1159 1978 
L 1159 0 
L 581 0 
L 581 4863 
L 1159 4863 
L 1159 2956 
Q 1366 3272 1645 3428 
Q 1925 3584 2291 3584 
Q 2894 3584 3203 3211 
Q 3513 2838 3513 2113 
z
" transform="scale(0.015625)"/>
       <path id="DejaVuSans-28" d="M 1984 4856 
Q 1566 4138 1362 3434 
Q 1159 2731 1159 2009 
Q 1159 1288 1364 580 
Q 1569 -128 1984 -844 
L 1484 -844 
Q 1016 -109 783 600 
Q 550 1309 550 2009 
Q 550 2706 781 3412 
Q 1013 4119 1484 4856 
L 1984 4856 
z
" transform="scale(0.015625)"/>
       <path id="DejaVuSans-47" d="M 3809 666 
L 3809 1919 
L 2778 1919 
L 2778 2438 
L 4434 2438 
L 4434 434 
Q 4069 175 3628 42 
Q 3188 -91 2688 -91 
Q 1594 -91 976 548 
Q 359 1188 359 2328 
Q 359 3472 976 4111 
Q 1594 4750 2688 4750 
Q 3144 4750 3555 4637 
Q 3966 4525 4313 4306 
L 4313 3634 
Q 3963 3931 3569 4081 
Q 3175 4231 2741 4231 
Q 1884 4231 1454 3753 
Q 1025 3275 1025 2328 
Q 1025 1384 1454 906 
Q 1884 428 2741 428 
Q 3075 428 3337 486 
Q 3600 544 3809 666 
z
" transform="scale(0.015625)"/>
       <path id="DejaVuSans-2f" d="M 1625 4666 
L 2156 4666 
L 531 -594 
L 0 -594 
L 1625 4666 
z
" transform="scale(0.015625)"/>
       <path id="DejaVuSans-73" d="M 2834 3397 
L 2834 2853 
Q 2591 2978 2328 3040 
Q 2066 3103 1784 3103 
Q 1356 3103 1142 2972 
Q 928 2841 928 2578 
Q 928 2378 1081 2264 
Q 1234 2150 1697 2047 
L 1894 2003 
Q 2506 1872 2764 1633 
Q 3022 1394 3022 966 
Q 3022 478 2636 193 
Q 2250 -91 1575 -91 
Q 1294 -91 989 -36 
Q 684 19 347 128 
L 347 722 
Q 666 556 975 473 
Q 1284 391 1588 391 
Q 1994 391 2212 530 
Q 2431 669 2431 922 
Q 2431 1156 2273 1281 
Q 2116 1406 1581 1522 
L 1381 1569 
Q 847 1681 609 1914 
Q 372 2147 372 2553 
Q 372 3047 722 3315 
Q 1072 3584 1716 3584 
Q 2034 3584 2315 3537 
Q 2597 3491 2834 3397 
z
" transform="scale(0.015625)"/>
       <path id="DejaVuSans-29" d="M 513 4856 
L 1013 4856 
Q 1481 4119 1714 3412 
Q 1947 2706 1947 2009 
Q 1947 1309 1714 600 
Q 1481 -109 1013 -844 
L 513 -844 
Q 928 -128 1133 580 
Q 1338 1288 1338 2009 
Q 1338 2731 1133 3434 
Q 928 4138 513 4856 
z
" transform="scale(0.015625)"/>
      </defs>
      <use xlink:href="#DejaVuSans-42"/>
      <use xlink:href="#DejaVuSans-61" x="68.603516"/>
      <use xlink:href="#DejaVuSans-6e" x="129.882812"/>
      <use xlink:href="#DejaVuSans-64" x="193.261719"/>
      <use xlink:href="#DejaVuSans-77" x="256.738281"/>
      <use xlink:href="#DejaVuSans-69" x="338.525391"/>
      <use xlink:href="#DejaVuSans-64" x="366.308594"/>
      <use xlink:href="#DejaVuSans-74" x="429.785156"/>
      <use xlink:href="#DejaVuSans-68" x="468.994141"/>
      <use xlink:href="#DejaVuSans-20" x="532.373047"/>
      <use xlink:href="#DejaVuSans-28" x="564.160156"/>
      <use xlink:href="#DejaVuSans-47" x="603.173828"/>
      <use xlink:href="#DejaVuSans-42" x="680.664062"/>
      <use xlink:href="#DejaVuSans-2f" x="749.267578"/>
      <use xlink:href="#DejaVuSans-73" x="782.958984"/>
      <use xlink:href="#DejaVuSans-29" x="835.058594"/>
     </g>
    </g>
   </g>
   <g id="line2d_29">
    <path d="M 38.013761 56.215916 
L 67.301886 39.863187 
L 84.43434 38.847857 
L 96.59001 38.354576 
L 113.722464 45.368811 
L 125.878134 38.220045 
L 135.306804 38.209892 
L 143.010589 57.691528 
L 149.524046 38.209892 
L 155.166259 38.930776 
L 160.143043 57.507922 
L 164.594929 38.309733 
L 168.622149 58.394644 
L 172.298713 61.692772 
L 175.680824 55.632947 
L 178.81217 38.27758 
L 181.727383 38.92993 
L 184.454383 46.650665 
L 187.016006 38.266581 
L 189.431168 38.437495 
L 191.715715 38.469647 
L 193.883053 38.275042 
L 195.944625 38.184509 
L 197.910273 38.259812 
L 199.788531 38.225122 
L 201.586838 38.240352 
L 203.311723 38.239506 
L 204.968949 38.242044 
L 206.563622 38.225968 
L 208.100294 38.224276 
L 209.583037 41.53002 
L 211.015508 41.787236 
L 212.401003 39.001849 
L 213.742507 38.389267 
L 219.877004 40.367467 
L 226.227003 38.423111 
L 233.436584 40.776137 
L 239.593467 60.062322 
L 246.817089 87.929734 
L 253.502659 105.456861 
L 260.163086 114.55506 
L 266.676543 188.946565 
L 273.297653 186.115488 
L 279.857163 186.905752 
L 286.488813 186.736531 
L 293.237668 185.859117 
L 299.923238 186.811834 
L 306.583665 184.757484 
L 319.825612 185.71274 
L 326.461455 185.339607 
L 333.14479 185.944574 
L 339.725263 185.607823 
L 346.401033 185.573132 
L 353.004244 184.825173 
L 359.64327 185.052776 
L 366.281923 184.999471 
L 372.943094 184.979165 
L 379.565369 184.955473 
L 386.212752 184.97578 
L 392.840666 184.942782 
L 399.473699 184.859863 
L 406.119537 184.943628 
L 412.750099 184.781175 
L 419.384007 184.825173 
L 426.02071 184.876785 
L 432.655611 184.876785 
L 439.286638 184.776945 
L 445.921408 184.812481 
L 452.554027 184.812481 
L 459.190493 184.815866 
L 465.82491 184.825173 
L 472.458659 184.815866 
L 479.09351 184.812481 
L 485.728366 184.832788 
L 492.36187 184.76933 
L 498.996235 184.778637 
L 505.629559 184.807405 
L 512.263546 184.904707 
L 518.89853 185.487675 
L 525.532227 185.699202 
L 532.165857 185.638283 
L 538.800517 185.953035 
" clip-path="url(#pd3c69b69f5)" style="fill: none; stroke: #348abd; stroke-opacity: 0.8; stroke-width: 3; stroke-linecap: square"/>
    <defs>
     <path id="m6a928d51dc" d="M -1.5 1.5 
L 1.5 -1.5 
M -1.5 -1.5 
L 1.5 1.5 
" style="stroke: #348abd; stroke-opacity: 0.8"/>
    </defs>
    <g clip-path="url(#pd3c69b69f5)">
     <use xlink:href="#m6a928d51dc" x="38.013761" y="56.215916" style="fill: #348abd; fill-opacity: 0.8; stroke: #348abd; stroke-opacity: 0.8"/>
     <use xlink:href="#m6a928d51dc" x="67.301886" y="39.863187" style="fill: #348abd; fill-opacity: 0.8; stroke: #348abd; stroke-opacity: 0.8"/>
     <use xlink:href="#m6a928d51dc" x="84.43434" y="38.847857" style="fill: #348abd; fill-opacity: 0.8; stroke: #348abd; stroke-opacity: 0.8"/>
     <use xlink:href="#m6a928d51dc" x="96.59001" y="38.354576" style="fill: #348abd; fill-opacity: 0.8; stroke: #348abd; stroke-opacity: 0.8"/>
     <use xlink:href="#m6a928d51dc" x="113.722464" y="45.368811" style="fill: #348abd; fill-opacity: 0.8; stroke: #348abd; stroke-opacity: 0.8"/>
     <use xlink:href="#m6a928d51dc" x="125.878134" y="38.220045" style="fill: #348abd; fill-opacity: 0.8; stroke: #348abd; stroke-opacity: 0.8"/>
     <use xlink:href="#m6a928d51dc" x="135.306804" y="38.209892" style="fill: #348abd; fill-opacity: 0.8; stroke: #348abd; stroke-opacity: 0.8"/>
     <use xlink:href="#m6a928d51dc" x="143.010589" y="57.691528" style="fill: #348abd; fill-opacity: 0.8; stroke: #348abd; stroke-opacity: 0.8"/>
     <use xlink:href="#m6a928d51dc" x="149.524046" y="38.209892" style="fill: #348abd; fill-opacity: 0.8; stroke: #348abd; stroke-opacity: 0.8"/>
     <use xlink:href="#m6a928d51dc" x="155.166259" y="38.930776" style="fill: #348abd; fill-opacity: 0.8; stroke: #348abd; stroke-opacity: 0.8"/>
     <use xlink:href="#m6a928d51dc" x="160.143043" y="57.507922" style="fill: #348abd; fill-opacity: 0.8; stroke: #348abd; stroke-opacity: 0.8"/>
     <use xlink:href="#m6a928d51dc" x="164.594929" y="38.309733" style="fill: #348abd; fill-opacity: 0.8; stroke: #348abd; stroke-opacity: 0.8"/>
     <use xlink:href="#m6a928d51dc" x="168.622149" y="58.394644" style="fill: #348abd; fill-opacity: 0.8; stroke: #348abd; stroke-opacity: 0.8"/>
     <use xlink:href="#m6a928d51dc" x="172.298713" y="61.692772" style="fill: #348abd; fill-opacity: 0.8; stroke: #348abd; stroke-opacity: 0.8"/>
     <use xlink:href="#m6a928d51dc" x="175.680824" y="55.632947" style="fill: #348abd; fill-opacity: 0.8; stroke: #348abd; stroke-opacity: 0.8"/>
     <use xlink:href="#m6a928d51dc" x="178.81217" y="38.27758" style="fill: #348abd; fill-opacity: 0.8; stroke: #348abd; stroke-opacity: 0.8"/>
     <use xlink:href="#m6a928d51dc" x="181.727383" y="38.92993" style="fill: #348abd; fill-opacity: 0.8; stroke: #348abd; stroke-opacity: 0.8"/>
     <use xlink:href="#m6a928d51dc" x="184.454383" y="46.650665" style="fill: #348abd; fill-opacity: 0.8; stroke: #348abd; stroke-opacity: 0.8"/>
     <use xlink:href="#m6a928d51dc" x="187.016006" y="38.266581" style="fill: #348abd; fill-opacity: 0.8; stroke: #348abd; stroke-opacity: 0.8"/>
     <use xlink:href="#m6a928d51dc" x="189.431168" y="38.437495" style="fill: #348abd; fill-opacity: 0.8; stroke: #348abd; stroke-opacity: 0.8"/>
     <use xlink:href="#m6a928d51dc" x="191.715715" y="38.469647" style="fill: #348abd; fill-opacity: 0.8; stroke: #348abd; stroke-opacity: 0.8"/>
     <use xlink:href="#m6a928d51dc" x="193.883053" y="38.275042" style="fill: #348abd; fill-opacity: 0.8; stroke: #348abd; stroke-opacity: 0.8"/>
     <use xlink:href="#m6a928d51dc" x="195.944625" y="38.184509" style="fill: #348abd; fill-opacity: 0.8; stroke: #348abd; stroke-opacity: 0.8"/>
     <use xlink:href="#m6a928d51dc" x="197.910273" y="38.259812" style="fill: #348abd; fill-opacity: 0.8; stroke: #348abd; stroke-opacity: 0.8"/>
     <use xlink:href="#m6a928d51dc" x="199.788531" y="38.225122" style="fill: #348abd; fill-opacity: 0.8; stroke: #348abd; stroke-opacity: 0.8"/>
     <use xlink:href="#m6a928d51dc" x="201.586838" y="38.240352" style="fill: #348abd; fill-opacity: 0.8; stroke: #348abd; stroke-opacity: 0.8"/>
     <use xlink:href="#m6a928d51dc" x="203.311723" y="38.239506" style="fill: #348abd; fill-opacity: 0.8; stroke: #348abd; stroke-opacity: 0.8"/>
     <use xlink:href="#m6a928d51dc" x="204.968949" y="38.242044" style="fill: #348abd; fill-opacity: 0.8; stroke: #348abd; stroke-opacity: 0.8"/>
     <use xlink:href="#m6a928d51dc" x="206.563622" y="38.225968" style="fill: #348abd; fill-opacity: 0.8; stroke: #348abd; stroke-opacity: 0.8"/>
     <use xlink:href="#m6a928d51dc" x="208.100294" y="38.224276" style="fill: #348abd; fill-opacity: 0.8; stroke: #348abd; stroke-opacity: 0.8"/>
     <use xlink:href="#m6a928d51dc" x="209.583037" y="41.53002" style="fill: #348abd; fill-opacity: 0.8; stroke: #348abd; stroke-opacity: 0.8"/>
     <use xlink:href="#m6a928d51dc" x="211.015508" y="41.787236" style="fill: #348abd; fill-opacity: 0.8; stroke: #348abd; stroke-opacity: 0.8"/>
     <use xlink:href="#m6a928d51dc" x="212.401003" y="39.001849" style="fill: #348abd; fill-opacity: 0.8; stroke: #348abd; stroke-opacity: 0.8"/>
     <use xlink:href="#m6a928d51dc" x="213.742507" y="38.389267" style="fill: #348abd; fill-opacity: 0.8; stroke: #348abd; stroke-opacity: 0.8"/>
     <use xlink:href="#m6a928d51dc" x="219.877004" y="40.367467" style="fill: #348abd; fill-opacity: 0.8; stroke: #348abd; stroke-opacity: 0.8"/>
     <use xlink:href="#m6a928d51dc" x="226.227003" y="38.423111" style="fill: #348abd; fill-opacity: 0.8; stroke: #348abd; stroke-opacity: 0.8"/>
     <use xlink:href="#m6a928d51dc" x="233.436584" y="40.776137" style="fill: #348abd; fill-opacity: 0.8; stroke: #348abd; stroke-opacity: 0.8"/>
     <use xlink:href="#m6a928d51dc" x="239.593467" y="60.062322" style="fill: #348abd; fill-opacity: 0.8; stroke: #348abd; stroke-opacity: 0.8"/>
     <use xlink:href="#m6a928d51dc" x="246.817089" y="87.929734" style="fill: #348abd; fill-opacity: 0.8; stroke: #348abd; stroke-opacity: 0.8"/>
     <use xlink:href="#m6a928d51dc" x="253.502659" y="105.456861" style="fill: #348abd; fill-opacity: 0.8; stroke: #348abd; stroke-opacity: 0.8"/>
     <use xlink:href="#m6a928d51dc" x="260.163086" y="114.55506" style="fill: #348abd; fill-opacity: 0.8; stroke: #348abd; stroke-opacity: 0.8"/>
     <use xlink:href="#m6a928d51dc" x="266.676543" y="188.946565" style="fill: #348abd; fill-opacity: 0.8; stroke: #348abd; stroke-opacity: 0.8"/>
     <use xlink:href="#m6a928d51dc" x="273.297653" y="186.115488" style="fill: #348abd; fill-opacity: 0.8; stroke: #348abd; stroke-opacity: 0.8"/>
     <use xlink:href="#m6a928d51dc" x="279.857163" y="186.905752" style="fill: #348abd; fill-opacity: 0.8; stroke: #348abd; stroke-opacity: 0.8"/>
     <use xlink:href="#m6a928d51dc" x="286.488813" y="186.736531" style="fill: #348abd; fill-opacity: 0.8; stroke: #348abd; stroke-opacity: 0.8"/>
     <use xlink:href="#m6a928d51dc" x="293.237668" y="185.859117" style="fill: #348abd; fill-opacity: 0.8; stroke: #348abd; stroke-opacity: 0.8"/>
     <use xlink:href="#m6a928d51dc" x="299.923238" y="186.811834" style="fill: #348abd; fill-opacity: 0.8; stroke: #348abd; stroke-opacity: 0.8"/>
     <use xlink:href="#m6a928d51dc" x="306.583665" y="184.757484" style="fill: #348abd; fill-opacity: 0.8; stroke: #348abd; stroke-opacity: 0.8"/>
     <use xlink:href="#m6a928d51dc" x="319.825612" y="185.71274" style="fill: #348abd; fill-opacity: 0.8; stroke: #348abd; stroke-opacity: 0.8"/>
     <use xlink:href="#m6a928d51dc" x="326.461455" y="185.339607" style="fill: #348abd; fill-opacity: 0.8; stroke: #348abd; stroke-opacity: 0.8"/>
     <use xlink:href="#m6a928d51dc" x="333.14479" y="185.944574" style="fill: #348abd; fill-opacity: 0.8; stroke: #348abd; stroke-opacity: 0.8"/>
     <use xlink:href="#m6a928d51dc" x="339.725263" y="185.607823" style="fill: #348abd; fill-opacity: 0.8; stroke: #348abd; stroke-opacity: 0.8"/>
     <use xlink:href="#m6a928d51dc" x="346.401033" y="185.573132" style="fill: #348abd; fill-opacity: 0.8; stroke: #348abd; stroke-opacity: 0.8"/>
     <use xlink:href="#m6a928d51dc" x="353.004244" y="184.825173" style="fill: #348abd; fill-opacity: 0.8; stroke: #348abd; stroke-opacity: 0.8"/>
     <use xlink:href="#m6a928d51dc" x="359.64327" y="185.052776" style="fill: #348abd; fill-opacity: 0.8; stroke: #348abd; stroke-opacity: 0.8"/>
     <use xlink:href="#m6a928d51dc" x="366.281923" y="184.999471" style="fill: #348abd; fill-opacity: 0.8; stroke: #348abd; stroke-opacity: 0.8"/>
     <use xlink:href="#m6a928d51dc" x="372.943094" y="184.979165" style="fill: #348abd; fill-opacity: 0.8; stroke: #348abd; stroke-opacity: 0.8"/>
     <use xlink:href="#m6a928d51dc" x="379.565369" y="184.955473" style="fill: #348abd; fill-opacity: 0.8; stroke: #348abd; stroke-opacity: 0.8"/>
     <use xlink:href="#m6a928d51dc" x="386.212752" y="184.97578" style="fill: #348abd; fill-opacity: 0.8; stroke: #348abd; stroke-opacity: 0.8"/>
     <use xlink:href="#m6a928d51dc" x="392.840666" y="184.942782" style="fill: #348abd; fill-opacity: 0.8; stroke: #348abd; stroke-opacity: 0.8"/>
     <use xlink:href="#m6a928d51dc" x="399.473699" y="184.859863" style="fill: #348abd; fill-opacity: 0.8; stroke: #348abd; stroke-opacity: 0.8"/>
     <use xlink:href="#m6a928d51dc" x="406.119537" y="184.943628" style="fill: #348abd; fill-opacity: 0.8; stroke: #348abd; stroke-opacity: 0.8"/>
     <use xlink:href="#m6a928d51dc" x="412.750099" y="184.781175" style="fill: #348abd; fill-opacity: 0.8; stroke: #348abd; stroke-opacity: 0.8"/>
     <use xlink:href="#m6a928d51dc" x="419.384007" y="184.825173" style="fill: #348abd; fill-opacity: 0.8; stroke: #348abd; stroke-opacity: 0.8"/>
     <use xlink:href="#m6a928d51dc" x="426.02071" y="184.876785" style="fill: #348abd; fill-opacity: 0.8; stroke: #348abd; stroke-opacity: 0.8"/>
     <use xlink:href="#m6a928d51dc" x="432.655611" y="184.876785" style="fill: #348abd; fill-opacity: 0.8; stroke: #348abd; stroke-opacity: 0.8"/>
     <use xlink:href="#m6a928d51dc" x="439.286638" y="184.776945" style="fill: #348abd; fill-opacity: 0.8; stroke: #348abd; stroke-opacity: 0.8"/>
     <use xlink:href="#m6a928d51dc" x="445.921408" y="184.812481" style="fill: #348abd; fill-opacity: 0.8; stroke: #348abd; stroke-opacity: 0.8"/>
     <use xlink:href="#m6a928d51dc" x="452.554027" y="184.812481" style="fill: #348abd; fill-opacity: 0.8; stroke: #348abd; stroke-opacity: 0.8"/>
     <use xlink:href="#m6a928d51dc" x="459.190493" y="184.815866" style="fill: #348abd; fill-opacity: 0.8; stroke: #348abd; stroke-opacity: 0.8"/>
     <use xlink:href="#m6a928d51dc" x="465.82491" y="184.825173" style="fill: #348abd; fill-opacity: 0.8; stroke: #348abd; stroke-opacity: 0.8"/>
     <use xlink:href="#m6a928d51dc" x="472.458659" y="184.815866" style="fill: #348abd; fill-opacity: 0.8; stroke: #348abd; stroke-opacity: 0.8"/>
     <use xlink:href="#m6a928d51dc" x="479.09351" y="184.812481" style="fill: #348abd; fill-opacity: 0.8; stroke: #348abd; stroke-opacity: 0.8"/>
     <use xlink:href="#m6a928d51dc" x="485.728366" y="184.832788" style="fill: #348abd; fill-opacity: 0.8; stroke: #348abd; stroke-opacity: 0.8"/>
     <use xlink:href="#m6a928d51dc" x="492.36187" y="184.76933" style="fill: #348abd; fill-opacity: 0.8; stroke: #348abd; stroke-opacity: 0.8"/>
     <use xlink:href="#m6a928d51dc" x="498.996235" y="184.778637" style="fill: #348abd; fill-opacity: 0.8; stroke: #348abd; stroke-opacity: 0.8"/>
     <use xlink:href="#m6a928d51dc" x="505.629559" y="184.807405" style="fill: #348abd; fill-opacity: 0.8; stroke: #348abd; stroke-opacity: 0.8"/>
     <use xlink:href="#m6a928d51dc" x="512.263546" y="184.904707" style="fill: #348abd; fill-opacity: 0.8; stroke: #348abd; stroke-opacity: 0.8"/>
     <use xlink:href="#m6a928d51dc" x="518.89853" y="185.487675" style="fill: #348abd; fill-opacity: 0.8; stroke: #348abd; stroke-opacity: 0.8"/>
     <use xlink:href="#m6a928d51dc" x="525.532227" y="185.699202" style="fill: #348abd; fill-opacity: 0.8; stroke: #348abd; stroke-opacity: 0.8"/>
     <use xlink:href="#m6a928d51dc" x="532.165857" y="185.638283" style="fill: #348abd; fill-opacity: 0.8; stroke: #348abd; stroke-opacity: 0.8"/>
     <use xlink:href="#m6a928d51dc" x="538.800517" y="185.953035" style="fill: #348abd; fill-opacity: 0.8; stroke: #348abd; stroke-opacity: 0.8"/>
    </g>
   </g>
   <g id="patch_3">
    <path d="M 62.85 229.110464 
L 62.85 10.8 
" style="fill: none; stroke: #bcbcbc; stroke-width: 0.8; stroke-linejoin: miter; stroke-linecap: square"/>
   </g>
   <g id="patch_4">
    <path d="M 565.2 229.110464 
L 565.2 10.8 
" style="fill: none; stroke: #bcbcbc; stroke-width: 0.8; stroke-linejoin: miter; stroke-linecap: square"/>
   </g>
   <g id="patch_5">
    <path d="M 62.85 229.110464 
L 565.2 229.110464 
" style="fill: none; stroke: #bcbcbc; stroke-width: 0.8; stroke-linejoin: miter; stroke-linecap: square"/>
   </g>
   <g id="patch_6">
    <path d="M 62.85 10.8 
L 565.2 10.8 
" style="fill: none; stroke: #bcbcbc; stroke-width: 0.8; stroke-linejoin: miter; stroke-linecap: square"/>
   </g>
   <g id="legend_1">
    <g id="patch_7">
     <path d="M 500.75 33.478125 
L 558.2 33.478125 
Q 560.2 33.478125 560.2 31.478125 
L 560.2 17.8 
Q 560.2 15.8 558.2 15.8 
L 500.75 15.8 
Q 498.75 15.8 498.75 17.8 
L 498.75 31.478125 
Q 498.75 33.478125 500.75 33.478125 
z
" style="fill: #eeeeee; opacity: 0.8; stroke: #cccccc; stroke-width: 0.5; stroke-linejoin: miter"/>
    </g>
    <g id="line2d_30">
     <path d="M 502.75 23.898438 
L 512.75 23.898438 
L 522.75 23.898438 
" style="fill: none; stroke: #348abd; stroke-opacity: 0.8; stroke-width: 3; stroke-linecap: square"/>
     <g>
      <use xlink:href="#m6a928d51dc" x="512.75" y="23.898438" style="fill: #348abd; fill-opacity: 0.8; stroke: #348abd; stroke-opacity: 0.8"/>
     </g>
    </g>
    <g id="text_17">
     <!-- 4090 -->
     <g transform="translate(530.75 27.398438) scale(0.1 -0.1)">
      <defs>
       <path id="DejaVuSans-39" d="M 703 97 
L 703 672 
Q 941 559 1184 500 
Q 1428 441 1663 441 
Q 2288 441 2617 861 
Q 2947 1281 2994 2138 
Q 2813 1869 2534 1725 
Q 2256 1581 1919 1581 
Q 1219 1581 811 2004 
Q 403 2428 403 3163 
Q 403 3881 828 4315 
Q 1253 4750 1959 4750 
Q 2769 4750 3195 4129 
Q 3622 3509 3622 2328 
Q 3622 1225 3098 567 
Q 2575 -91 1691 -91 
Q 1453 -91 1209 -44 
Q 966 3 703 97 
z
M 1959 2075 
Q 2384 2075 2632 2365 
Q 2881 2656 2881 3163 
Q 2881 3666 2632 3958 
Q 2384 4250 1959 4250 
Q 1534 4250 1286 3958 
Q 1038 3666 1038 3163 
Q 1038 2656 1286 2365 
Q 1534 2075 1959 2075 
z
" transform="scale(0.015625)"/>
      </defs>
      <use xlink:href="#DejaVuSans-34"/>
      <use xlink:href="#DejaVuSans-30" x="63.623047"/>
      <use xlink:href="#DejaVuSans-39" x="127.246094"/>
      <use xlink:href="#DejaVuSans-30" x="190.869141"/>
     </g>
    </g>
   </g>
  </g>
 </g>
 <defs>
  <clipPath id="pd3c69b69f5">
   <rect x="62.85" y="10.8" width="502.35" height="218.310464"/>
  </clipPath>
 </defs>
</svg>
